<?xml version="1.0" encoding="UTF-8" standalone="no"?>
<!-- Created with Inkscape (http://www.inkscape.org/) -->

<svg
   width="50mm"
   height="50mm"
   viewBox="0 0 50 50"
   version="1.1"
   id="svg1410"
   inkscape:version="1.1.2 (0a00cf5339, 2022-02-04, custom)"
   sodipodi:docname="pattern-laranja.svg"
   xmlns:inkscape="http://www.inkscape.org/namespaces/inkscape"
   xmlns:sodipodi="http://sodipodi.sourceforge.net/DTD/sodipodi-0.dtd"
   xmlns="http://www.w3.org/2000/svg"
   xmlns:svg="http://www.w3.org/2000/svg">
  <sodipodi:namedview
     id="namedview1412"
     pagecolor="#505050"
     bordercolor="#ffffff"
     borderopacity="1"
     inkscape:pageshadow="0"
     inkscape:pageopacity="0"
     inkscape:pagecheckerboard="1"
     inkscape:document-units="mm"
     showgrid="false"
     width="50mm"
     inkscape:zoom="2.2175583"
     inkscape:cx="136.18582"
     inkscape:cy="149.26327"
     inkscape:window-width="1872"
     inkscape:window-height="1023"
     inkscape:window-x="0"
     inkscape:window-y="28"
     inkscape:window-maximized="1"
     inkscape:current-layer="layer1" />
  <defs
     id="defs1407" />
  <g
     inkscape:label="Layer 1"
     inkscape:groupmode="layer"
     id="layer1">
    <g
       id="g506"
       transform="matrix(0.65884463,0,0,0.65883958,-626.48203,-477.61933)"
       style="stroke:#f26524;stroke-opacity:1;stroke-width:0.30356287;stroke-miterlimit:4;stroke-dasharray:none">
      <g
         id="g504"
         style="stroke:#f26524;stroke-opacity:1;stroke-width:0.30356287;stroke-miterlimit:4;stroke-dasharray:none">
        <g
           id="g486"
           style="fill:none;fill-opacity:1;stroke:#f26524;stroke-opacity:1;stroke-width:0.30356287;stroke-miterlimit:4;stroke-dasharray:none">
          <path
             class="st7"
             d="m 1026.24,800.29 c -10.25,-0.56 -19.99,-3.09 -28.84,-7.19 8.41,-5.91 15.75,-13.24 21.65,-21.66 4.11,8.88 6.63,18.61 7.19,28.85 z"
             id="path484"
             style="fill:none;fill-opacity:1;stroke:#f26524;stroke-opacity:1;stroke-width:0.30356287;stroke-miterlimit:4;stroke-dasharray:none" />
        </g>
        <g
           id="g490"
           style="fill:none;fill-opacity:1;stroke:#f26524;stroke-opacity:1;stroke-width:0.30356287;stroke-miterlimit:4;stroke-dasharray:none">
          <path
             class="st7"
             d="m 980.26,793.11 c -8.85,4.1 -18.6,6.63 -28.84,7.19 0.57,-10.25 3.09,-19.98 7.19,-28.84 5.9,8.41 13.23,15.74 21.65,21.65 z"
             id="path488"
             style="fill:none;fill-opacity:1;stroke:#f26524;stroke-opacity:1;stroke-width:0.30356287;stroke-miterlimit:4;stroke-dasharray:none" />
        </g>
        <g
           id="g494"
           style="fill:none;fill-opacity:1;stroke:#f26524;stroke-opacity:1;stroke-width:0.30356287;stroke-miterlimit:4;stroke-dasharray:none">
          <path
             class="st7"
             d="m 1014.41,762.88 c -6.45,10.37 -15.23,19.14 -25.58,25.59 -10.37,-6.46 -19.14,-15.23 -25.59,-25.59 6.46,-10.36 15.23,-19.13 25.59,-25.58 10.36,6.45 19.14,15.22 25.58,25.58 z"
             id="path492"
             style="fill:none;fill-opacity:1;stroke:#f26524;stroke-opacity:1;stroke-width:0.30356287;stroke-miterlimit:4;stroke-dasharray:none" />
        </g>
        <g
           id="g498"
           style="fill:none;fill-opacity:1;stroke:#f26524;stroke-opacity:1;stroke-width:0.30356287;stroke-miterlimit:4;stroke-dasharray:none">
          <path
             class="st7"
             d="m 980.26,732.66 c -8.42,5.91 -15.75,13.24 -21.66,21.66 -4.1,-8.86 -6.62,-18.6 -7.19,-28.85 10.25,0.56 19.99,3.08 28.85,7.19 z"
             id="path496"
             style="fill:none;fill-opacity:1;stroke:#f26524;stroke-opacity:1;stroke-width:0.30356287;stroke-miterlimit:4;stroke-dasharray:none" />
        </g>
        <g
           id="g502"
           style="fill:none;fill-opacity:1;stroke:#f26524;stroke-opacity:1;stroke-width:0.30356287;stroke-miterlimit:4;stroke-dasharray:none">
          <path
             class="st5"
             d="m 1026.24,725.47 c -0.57,10.26 -3.09,19.99 -7.2,28.85 -5.9,-8.42 -13.24,-15.75 -21.65,-21.66 8.87,-4.11 18.61,-6.63 28.85,-7.19 z"
             id="path500"
             style="fill:none;fill-opacity:1;stroke:#f26524;stroke-opacity:1;stroke-width:0.30356287;stroke-miterlimit:4;stroke-dasharray:none" />
        </g>
      </g>
    </g>
  </g>
</svg>
