<svg width="61" height="61" viewBox="0 0 61 61" fill="none" xmlns="http://www.w3.org/2000/svg">
<g clip-path="url(#clip0_132_651)">
<path d="M45.9883 27.4023C47.3043 27.4023 48.3711 26.3355 48.3711 25.0195C48.3711 23.7035 47.3043 22.6367 45.9883 22.6367C44.6723 22.6367 43.6055 23.7035 43.6055 25.0195C43.6055 26.3355 44.6723 27.4023 45.9883 27.4023Z" fill="#4A3AFF"/>
<path d="M51.4688 4.76562H48.3711V2.38281C48.3711 1.06631 47.3048 0 45.9883 0C44.6718 0 43.6055 1.06631 43.6055 2.38281V4.76562H32.7637V2.38281C32.7637 1.06631 31.6974 0 30.3809 0C29.0644 0 27.998 1.06631 27.998 2.38281V4.76562H17.2754V2.38281C17.2754 1.06631 16.2091 0 14.8926 0C13.5761 0 12.5098 1.06631 12.5098 2.38281V4.76562H9.53125C4.27596 4.76562 0 9.04158 0 14.2969V51.4688C0 56.724 4.27596 61 9.53125 61H27.7598C29.0763 61 30.1426 59.9337 30.1426 58.6172C30.1426 57.3007 29.0763 56.2344 27.7598 56.2344H9.53125C6.90301 56.2344 4.76562 54.097 4.76562 51.4688V14.2969C4.76562 11.6686 6.90301 9.53125 9.53125 9.53125H12.5098V11.9141C12.5098 13.2306 13.5761 14.2969 14.8926 14.2969C16.2091 14.2969 17.2754 13.2306 17.2754 11.9141V9.53125H27.998V11.9141C27.998 13.2306 29.0644 14.2969 30.3809 14.2969C31.6974 14.2969 32.7637 13.2306 32.7637 11.9141V9.53125H43.6055V11.9141C43.6055 13.2306 44.6718 14.2969 45.9883 14.2969C47.3048 14.2969 48.3711 13.2306 48.3711 11.9141V9.53125H51.4688C54.097 9.53125 56.2344 11.6686 56.2344 14.2969V27.8789C56.2344 29.1954 57.3007 30.2617 58.6172 30.2617C59.9337 30.2617 61 29.1954 61 27.8789V14.2969C61 9.04158 56.724 4.76562 51.4688 4.76562Z" fill="#4A3AFF"/>
<path d="M46.584 32.168C38.6349 32.168 32.168 38.6349 32.168 46.584C32.168 54.533 38.6349 61 46.584 61C54.533 61 61 54.533 61 46.584C61 38.6349 54.533 32.168 46.584 32.168ZM46.584 56.2344C41.2632 56.2344 36.9336 51.9048 36.9336 46.584C36.9336 41.2632 41.2632 36.9336 46.584 36.9336C51.9048 36.9336 56.2344 41.2632 56.2344 46.584C56.2344 51.9048 51.9048 56.2344 46.584 56.2344Z" fill="#4A3AFF"/>
<path d="M50.0391 44.2012H48.9668V41.6992C48.9668 40.3827 47.9005 39.3164 46.584 39.3164C45.2675 39.3164 44.2012 40.3827 44.2012 41.6992V46.584C44.2012 47.9005 45.2675 48.9668 46.584 48.9668H50.0391C51.3556 48.9668 52.4219 47.9005 52.4219 46.584C52.4219 45.2675 51.3556 44.2012 50.0391 44.2012Z" fill="#4A3AFF"/>
<path d="M35.623 27.4023C36.939 27.4023 38.0059 26.3355 38.0059 25.0195C38.0059 23.7035 36.939 22.6367 35.623 22.6367C34.3071 22.6367 33.2402 23.7035 33.2402 25.0195C33.2402 26.3355 34.3071 27.4023 35.623 27.4023Z" fill="#4A3AFF"/>
<path d="M25.2578 37.7676C26.5738 37.7676 27.6406 36.7008 27.6406 35.3848C27.6406 34.0688 26.5738 33.002 25.2578 33.002C23.9418 33.002 22.875 34.0688 22.875 35.3848C22.875 36.7008 23.9418 37.7676 25.2578 37.7676Z" fill="#4A3AFF"/>
<path d="M14.8926 27.4023C16.2086 27.4023 17.2754 26.3355 17.2754 25.0195C17.2754 23.7035 16.2086 22.6367 14.8926 22.6367C13.5766 22.6367 12.5098 23.7035 12.5098 25.0195C12.5098 26.3355 13.5766 27.4023 14.8926 27.4023Z" fill="#4A3AFF"/>
<path d="M14.8926 37.7676C16.2086 37.7676 17.2754 36.7008 17.2754 35.3848C17.2754 34.0688 16.2086 33.002 14.8926 33.002C13.5766 33.002 12.5098 34.0688 12.5098 35.3848C12.5098 36.7008 13.5766 37.7676 14.8926 37.7676Z" fill="#4A3AFF"/>
<path d="M14.8926 48.1328C16.2086 48.1328 17.2754 47.066 17.2754 45.75C17.2754 44.434 16.2086 43.3672 14.8926 43.3672C13.5766 43.3672 12.5098 44.434 12.5098 45.75C12.5098 47.066 13.5766 48.1328 14.8926 48.1328Z" fill="#4A3AFF"/>
<path d="M25.2578 48.1328C26.5738 48.1328 27.6406 47.066 27.6406 45.75C27.6406 44.434 26.5738 43.3672 25.2578 43.3672C23.9418 43.3672 22.875 44.434 22.875 45.75C22.875 47.066 23.9418 48.1328 25.2578 48.1328Z" fill="#4A3AFF"/>
<path d="M25.2578 27.4023C26.5738 27.4023 27.6406 26.3355 27.6406 25.0195C27.6406 23.7035 26.5738 22.6367 25.2578 22.6367C23.9418 22.6367 22.875 23.7035 22.875 25.0195C22.875 26.3355 23.9418 27.4023 25.2578 27.4023Z" fill="#4A3AFF"/>
</g>
<defs>
<clipPath id="clip0_132_651">
<rect width="61" height="61" fill="white"/>
</clipPath>
</defs>
</svg>
