<svg width="19" height="54" viewBox="0 0 19 54" fill="none" xmlns="http://www.w3.org/2000/svg">
<path d="M15.3955 53.4675C16.3718 50.3342 17.341 47.1981 18.3172 44.0648C18.4563 43.6161 18.5964 43.1545 18.4446 42.7191C18.2929 42.2837 17.7745 41.8804 17.0795 41.857C15.9529 41.819 15.268 42.6887 14.9064 43.3952C14.2484 44.6988 13.585 46.0034 12.927 47.307C11.3584 43.3682 9.85446 39.4128 8.41828 35.4487C6.43037 29.969 4.54761 24.4226 4.3609 18.7296C4.17567 13.0404 5.79015 7.13401 10.3586 2.09849C10.9031 1.50052 11.4966 0.749653 10.9606 0.189265C8.33907 0.707098 6.67025 2.40646 5.50414 4.02665C1.64195 9.38314 0.428096 15.3481 0.889563 21.1111C1.35103 26.8741 3.42494 32.4725 5.89104 37.9496C7.70025 41.9775 9.7273 45.9553 11.9637 49.8763C9.82836 47.8147 6.94012 46.0953 3.5776 44.893C5.32534 48.7258 9.74041 51.9265 15.401 53.4664L15.3955 53.4675ZM15.1202 44.3422C15.2289 44.3637 15.2659 44.4622 15.1868 44.5195C15.0782 44.498 15.0412 44.3996 15.1202 44.3422ZM15.0396 45.3244C15.1003 45.3128 15.1285 45.3876 15.0677 45.3992C15.0111 45.4058 14.9789 45.336 15.0396 45.3244ZM14.4361 45.8281C14.4803 45.8197 14.5233 45.8241 14.5503 45.8485C14.6546 45.9215 14.4222 46.0587 14.3164 45.9819C14.243 45.9283 14.3368 45.8471 14.4361 45.8281ZM13.7845 47.5737C13.8931 47.5952 13.9301 47.6937 13.8511 47.751C13.7425 47.7295 13.7055 47.6311 13.7845 47.5737ZM13.7742 47.9557C13.8508 47.9706 13.9006 48.0244 13.8907 48.0769L13.9018 48.0748C13.907 48.1202 13.7811 48.1316 13.7483 48.0915C13.7155 48.0513 13.7489 47.9985 13.7797 47.9546L13.7742 47.9557ZM13.8108 48.4468C13.8384 48.4415 13.869 48.4441 13.8819 48.4628C13.8967 48.5022 13.7793 48.5204 13.7605 48.486C13.7531 48.4663 13.7832 48.4521 13.8108 48.4468ZM13.291 47.8664C13.3518 47.8548 13.3784 47.9257 13.3192 47.9413C13.264 47.9518 13.2303 47.878 13.291 47.8664ZM7.07376 2.81907C7.17704 2.73178 7.34035 2.66258 7.37807 2.55827C7.51067 2.59626 7.51131 2.73968 7.38071 2.78574L7.38515 2.79756C7.30287 2.89349 7.21359 2.98654 7.12579 3.08353C6.96048 3.06868 6.96496 2.9074 7.07376 2.81907ZM10.8763 46.998C10.8707 46.9358 10.9512 46.8824 11.0451 46.8645C11.0892 46.856 11.1308 46.8565 11.1713 46.8699C11.2929 46.91 11.3016 47.0434 11.185 47.0953C11.0684 47.1471 10.8813 47.09 10.8778 47.002L10.8763 46.998ZM6.5624 3.5838C6.62312 3.5722 6.65124 3.64703 6.59052 3.65863C6.53384 3.66524 6.5072 3.59435 6.5624 3.5838ZM5.78074 4.29042L5.7837 4.2983C5.86638 4.21917 5.94905 4.14005 6.03173 4.06093C6.11165 4.27363 5.88609 4.52358 5.55786 4.59475C5.3939 4.52054 5.5979 4.35491 5.78074 4.29042ZM5.52794 4.73556C5.55662 4.71741 5.5923 4.70215 5.63094 4.69477C5.70821 4.68 5.78885 4.68992 5.84377 4.72587C5.81265 4.81624 5.70089 4.89671 5.56438 4.92701L5.53974 4.94017C5.4513 4.89374 5.4489 4.79288 5.52794 4.73556ZM4.99359 5.40759C5.07166 5.42644 5.11998 5.47631 5.11014 5.52885L5.11566 5.5278C5.1209 5.57323 4.99503 5.58463 4.96219 5.54446C4.92935 5.5043 4.95723 5.45253 4.98807 5.40865L4.99359 5.40759ZM4.39539 6.19314C4.52031 6.25792 4.66691 6.30167 4.8267 6.31758C4.86394 6.54265 4.7337 6.77863 4.48407 6.94875C4.37575 6.70771 4.35023 6.45084 4.40239 6.19602L4.39539 6.19314ZM4.10467 7.02547C4.16539 7.01387 4.19351 7.08871 4.13279 7.10031C4.07207 7.11191 4.04396 7.03707 4.10467 7.02547ZM4.31154 7.7965C4.32486 7.83195 4.21042 7.85803 4.19011 7.8197C4.17531 7.78031 4.2927 7.7621 4.31154 7.7965ZM3.8628 7.4052C3.87059 7.4417 3.7602 7.4628 3.74136 7.4284C3.72656 7.38902 3.84396 7.3708 3.8628 7.4052ZM3.68404 7.87419C3.80412 7.91035 3.80623 8.0577 3.66784 8.06726L3.6568 8.06937C3.73715 8.12578 3.71747 8.23086 3.62148 8.27454C3.57264 8.14455 3.59004 8.00191 3.67852 7.87525L3.68404 7.87419ZM3.29831 9.6661C3.42579 9.72195 3.47167 9.84406 3.40743 9.94077L3.39639 9.94288C3.26743 9.88309 3.22707 9.75993 3.29831 9.6661ZM2.6924 10.069L2.72296 10.0716C2.72608 9.96964 2.72772 9.86379 2.73084 9.76187C2.93544 9.91275 2.95652 10.1578 2.789 10.3418C2.67108 10.2799 2.63368 10.1646 2.6994 10.0718L2.6924 10.069ZM2.6876 11.0324C2.74279 11.0219 2.80391 11.0271 2.84187 11.0494C2.80335 11.1201 2.6488 11.1496 2.56588 11.1021C2.58164 11.0653 2.6324 11.043 2.6876 11.0324ZM2.63135 12.0479C2.63675 11.9835 2.70879 11.9233 2.79523 11.8857C2.86482 11.8978 2.9091 11.9526 2.89078 11.9983L2.87463 12.0183C2.96266 12.0479 2.9139 12.1543 2.81159 12.1654C2.70927 12.1766 2.62043 12.1133 2.62583 12.049L2.63135 12.0479ZM2.29656 11.9599C2.29656 11.9599 2.32968 11.9536 2.3492 11.9583C2.46039 11.9708 2.47935 12.0685 2.44635 12.1381C2.40783 12.2088 2.34023 12.2808 2.36539 12.3478C2.31047 12.3119 2.26108 12.2749 2.21168 12.2379L2.24588 12.2187C2.1732 12.1355 2.18064 11.9821 2.29656 11.9599ZM1.79095 14.5979C1.75147 14.1622 1.85335 13.7248 1.95672 13.2913C1.99068 13.1455 2.02464 12.9997 2.06412 12.8529C2.08164 12.7735 2.16243 12.6737 2.26179 12.6547C2.28939 12.6494 2.31995 12.652 2.35347 12.6625C2.44447 12.7 2.41335 12.7904 2.37335 12.8571C2.13011 13.2962 2.06915 13.7638 2.01223 14.2264C1.99267 14.3948 1.96907 14.5681 1.9495 14.7365C1.85419 14.7505 1.80507 14.667 1.79795 14.6008L1.79095 14.5979ZM1.64163 15.2555C1.69911 15.2825 1.76507 15.3164 1.76479 15.3628C1.7645 15.4093 1.64751 15.4444 1.62019 15.4031L1.63123 15.401C1.58587 15.359 1.59127 15.2947 1.64715 15.2545L1.64163 15.2555ZM1.6801 15.9405C1.72978 15.931 1.77838 15.9344 1.8189 15.9478C1.93642 15.9928 1.93262 16.1244 1.80902 16.1734C1.68542 16.2223 1.51191 16.1542 1.51395 16.0651C1.51531 16.0058 1.59178 15.9574 1.6801 15.9405ZM1.6661 16.5173C1.6937 16.5121 1.72426 16.5147 1.73718 16.5333C1.74646 16.5737 1.63458 16.5909 1.61574 16.5565C1.60834 16.5368 1.6385 16.5226 1.6661 16.5173ZM1.36734 17.7691C1.30602 17.4642 1.4383 17.1392 1.72753 16.8855C1.72453 17.0507 1.72005 17.212 1.71705 17.3772C1.70293 17.8908 1.69028 18.4082 1.68168 18.9207C1.68248 18.9543 1.67372 18.994 1.62552 19.0074C1.49608 18.6944 1.45093 18.3695 1.49301 18.0406C1.50865 17.9406 1.50841 17.814 1.37286 17.7681L1.36734 17.7691ZM1.66104 19.6845L1.67424 19.6567C1.78999 19.7443 1.74795 19.9001 1.58868 19.9643C1.46632 19.8906 1.50984 19.7387 1.66104 19.6845ZM12.2477 49.1677C12.5681 49.4695 12.687 49.8647 12.5615 50.2391C12.1963 50.0387 12.5282 49.5995 12.2642 49.3376C11.9702 49.0434 11.8039 48.6952 11.7885 48.3393C12.0686 48.518 12.223 48.7713 12.2154 49.0345C12.2151 49.081 12.2053 49.1336 12.2491 49.1716L12.2477 49.1677ZM11.7631 48.1457C11.4503 47.9902 11.279 47.7232 11.3212 47.4576C11.634 47.6132 11.8053 47.8802 11.7631 48.1457ZM1.75698 21.5617C1.83506 21.5806 1.88338 21.6304 1.87354 21.683L1.87906 21.6819C1.88429 21.7274 1.75842 21.7387 1.72558 21.6986C1.69274 21.6584 1.72062 21.6066 1.75698 21.5617ZM1.88649 22.6937C2.00224 22.7813 2.12352 22.8679 2.2378 22.9516L2.24372 22.9674C2.18756 23.0541 1.96408 23.0419 1.89436 22.9666C1.82317 22.8873 1.85133 22.7891 1.88649 22.6937ZM2.117 23.7008C2.17448 23.7278 2.24043 23.7617 2.24015 23.8082C2.23987 23.8547 2.12287 23.8897 2.09555 23.8485L2.10107 23.8474C2.05572 23.8054 2.06112 23.7411 2.117 23.7008ZM9.54996 43.8615C9.61563 43.9418 9.71295 44.0119 9.83047 44.057C9.79047 44.1237 9.63591 44.1533 9.55852 44.1047C9.49028 44.0333 9.48384 43.9375 9.54444 43.8626L9.54996 43.8615ZM2.18027 24.2629C2.30775 24.3187 2.35362 24.4408 2.28387 24.5386L2.27727 24.5525C2.21211 24.5523 2.13995 24.5492 2.07331 24.5451C2.10847 24.4497 2.14511 24.3583 2.18175 24.2668L2.18027 24.2629ZM2.30758 25.0111C2.41622 25.0326 2.4547 25.135 2.37418 25.1884C2.26554 25.1669 2.22854 25.0684 2.30758 25.0111ZM2.54872 26.5819C2.50733 26.2985 2.46593 26.0152 2.42453 25.7318C2.70972 26.0657 2.804 26.474 2.68988 26.8631C2.58004 26.7912 2.56364 26.6846 2.54872 26.5819ZM5.14505 34.1534C5.20253 34.1804 5.26849 34.2142 5.26821 34.2607C5.26792 34.3072 5.15241 34.3461 5.12361 34.301L5.13465 34.2989C5.08929 34.2569 5.09469 34.1925 5.15057 34.1523L5.14505 34.1534ZM4.27041 31.8255C4.16177 31.804 4.12477 31.7056 4.20381 31.6483C4.31245 31.6697 4.34945 31.7682 4.27041 31.8255ZM4.4036 32.18C4.34288 32.1916 4.31476 32.1168 4.37548 32.1052C4.4362 32.0936 4.46284 32.1645 4.4036 32.18ZM4.44208 32.2824C4.44208 32.2824 4.47224 32.2682 4.48328 32.2661C4.5992 32.2439 4.74483 32.3639 4.63267 32.4275C4.51096 32.4972 4.31484 32.3532 4.43656 32.2835L4.44208 32.2824ZM4.24117 31.354C4.08137 31.3381 4.15977 31.1374 4.31001 31.1594C4.46428 31.1763 4.38993 31.3721 4.23565 31.3551L4.24117 31.354ZM3.01394 27.8988L3.01946 27.8978C2.97262 27.8518 2.97803 27.7875 3.03942 27.7462C3.12382 27.7976 3.19758 27.868 3.17306 27.9444C3.14854 28.0209 2.97378 28.0754 2.9085 28.0119C2.9423 27.9758 2.97462 27.9359 3.01246 27.8949L3.01394 27.8988ZM7.61727 39.9459C7.40812 39.7199 7.30896 39.456 7.33164 39.1857C7.5408 39.4117 7.63995 39.6756 7.61727 39.9459ZM3.12974 28.396C3.06902 28.4076 3.04238 28.3367 3.10162 28.3211C3.15682 28.3106 3.19046 28.3844 3.12974 28.396ZM3.9041 30.6459C3.8995 30.7439 3.95858 30.8381 4.06546 30.9021C4.12737 30.941 4.21137 30.9756 4.19749 31.0331C4.18105 31.0996 4.03458 31.1191 3.9491 31.0806C3.86914 31.041 3.84398 30.974 3.8203 30.911C3.78478 30.8164 3.77499 30.6959 3.90263 30.642L3.9041 30.6459ZM4.66191 32.899C4.76839 32.9462 4.83002 33.0315 4.82098 33.1177C4.8907 33.193 4.89714 33.2889 4.8325 33.3688C4.68391 33.2409 4.61879 33.0676 4.65787 32.904L4.66191 32.899ZM5.30784 34.5866C5.46504 34.7846 5.56851 34.997 5.61127 35.221C5.53843 35.2476 5.47059 35.193 5.44031 35.1439C5.33912 34.969 5.29016 34.7758 5.30784 34.5866ZM5.7857 35.3861C5.94626 35.6087 6.03398 35.8579 6.04549 36.109C5.92234 36.0017 5.77858 35.9025 5.70618 35.7728C5.62975 35.6481 5.63975 35.4857 5.79122 35.385L5.7857 35.3861ZM6.60275 37.6236C6.44659 37.5859 6.40947 37.4241 6.54075 37.3484L6.57359 37.3886C6.62931 37.4581 6.64383 37.544 6.60275 37.6236ZM6.58439 37.8424C6.58439 37.8424 6.60647 37.8382 6.61751 37.8361C6.7279 37.815 6.82682 37.9523 6.70282 37.9845L6.58923 37.8711L6.58991 37.8414L6.58439 37.8424ZM7.08349 38.7771L7.10005 38.774C7.23805 38.7476 7.33036 38.8988 7.20676 38.9478C7.17421 38.8611 7.07541 38.7871 6.94429 38.7531C6.95965 38.6995 7.11689 38.7243 7.08349 38.7771ZM7.78942 40.656C7.73626 40.5775 7.6827 40.4822 7.75986 40.4041C7.7775 40.3881 7.80362 40.3789 7.83122 40.3736C7.93058 40.3546 8.06614 40.4005 8.00662 40.4625C7.9067 40.5745 7.9655 40.7152 8.06913 40.8178C8.17277 40.9205 8.32312 41.0057 8.41168 41.1154C8.42312 41.1301 8.43604 41.1488 8.43092 41.1666C8.42808 41.2221 8.31364 41.2482 8.2396 41.2243C8.16557 41.2005 8.12829 41.1485 8.09249 41.1004C7.98913 40.9513 7.88578 40.8022 7.78942 40.656ZM8.31912 41.4202C8.3766 41.4472 8.44256 41.481 8.44228 41.5275C8.442 41.574 8.32648 41.613 8.29768 41.5678L8.30872 41.5657C8.26336 41.5237 8.26876 41.4594 8.32464 41.4191L8.31912 41.4202ZM8.58847 42.1371C8.74259 42.2638 8.8625 42.4098 8.93422 42.5692C8.86234 42.5196 8.79598 42.4689 8.72411 42.4193L8.74619 42.4151C8.57643 42.3884 8.49111 42.2401 8.58995 42.141L8.58847 42.1371ZM9.18453 43.5345C9.08401 43.33 9.02765 43.117 9.0059 42.9016C9.10953 43.0043 9.21721 43.1019 9.32084 43.2045L9.365 43.1961C9.33093 43.2786 9.4312 43.3565 9.46928 43.4421C9.50184 43.5288 9.40232 43.6575 9.27673 43.6224C9.22369 43.6072 9.19785 43.57 9.18305 43.5306L9.18453 43.5345ZM9.72871 44.5577C9.67931 44.5207 9.68619 44.4603 9.73655 44.4211C9.95598 44.4383 10.1069 44.6037 10.0283 44.7411C9.8851 44.722 9.76423 44.6522 9.71363 44.5648L9.7357 44.5606L9.72871 44.5577ZM10.0695 45.3074C9.9461 45.2465 9.9017 45.1283 9.96742 45.0356C10.044 45.0505 10.0993 45.1032 10.0895 45.1558C10.1363 45.2017 10.1309 45.2661 10.0695 45.3074ZM10.3517 45.8065C10.7092 46.0337 10.8832 46.355 11.0458 46.6617C11.0517 46.6775 11.0576 46.6932 11.0635 46.709C11.0603 46.7476 10.9889 46.7781 10.9304 46.764C10.8843 46.7517 10.86 46.7183 10.8426 46.6879C10.679 46.3941 10.5154 46.1003 10.3517 45.8065ZM12.1093 51.9171C12.266 52.0349 12.4241 52.1566 12.5753 52.2755C12.5875 52.3238 12.4589 52.2809 12.4522 52.2315L12.4375 52.2554C12.2619 52.213 12.0998 52.1595 11.9443 52.0921C11.9998 52.0351 12.0538 51.9741 12.1093 51.9171ZM11.2175 51.6062C11.4878 51.6643 11.6913 51.8281 11.7192 52.0127L11.5157 51.849L11.5484 51.8258C11.3553 51.8627 11.1621 51.7266 11.2175 51.6062ZM9.82374 50.243C9.93238 50.2644 9.97086 50.3669 9.89034 50.4202C9.7817 50.3988 9.7447 50.3003 9.82374 50.243ZM8.11427 49.1258L8.13527 49.1345C8.13527 49.1345 8.15035 49.1274 8.16139 49.1253C8.22211 49.1137 8.29586 49.184 8.22303 49.2106C8.15815 49.1639 8.06863 49.1303 7.96995 49.1196C7.97279 49.0642 8.14915 49.077 8.11575 49.1298L8.11427 49.1258ZM7.1557 48.7475C7.21641 48.7359 7.24453 48.8108 7.18382 48.8224C7.12309 48.834 7.09646 48.7631 7.1557 48.7475ZM5.46019 46.6441C5.82658 46.8949 5.97673 47.2631 6.34312 47.5139C6.55876 47.6627 6.87603 47.83 6.75603 48.0302C6.41348 47.7326 6.07093 47.435 5.72838 47.1374C5.56134 46.992 5.38543 46.823 5.45319 46.6412L5.46019 46.6441ZM5.1502 46.4331L5.1712 46.4418C5.1712 46.4418 5.18628 46.4347 5.19732 46.4326C5.25804 46.421 5.33179 46.4913 5.26447 46.5168C5.19812 46.4662 5.11008 46.4366 5.0114 46.4259C5.00872 46.3715 5.1906 46.3832 5.1572 46.436L5.1502 46.4331ZM4.79649 46.0743L4.80605 46.0683C4.81709 46.0662 4.82705 46.0769 4.83149 46.0888C4.83593 46.1006 4.84036 46.1124 4.81276 46.1177C4.76861 46.1261 4.73173 46.0909 4.71989 46.0594L4.71693 46.0515C4.46222 46.0664 4.26342 45.868 4.37358 45.7203C4.57658 45.804 4.72517 45.9318 4.79393 46.0833L4.79649 46.0743Z" fill="#07215B"/>
</svg>
