<svg width="19" height="54" viewBox="0 0 19 54" fill="none" xmlns="http://www.w3.org/2000/svg">
<path d="M14.9946 53.2907C15.9709 50.1575 16.9401 47.0213 17.9164 43.8881C18.0554 43.4393 18.1955 42.9777 18.0438 42.5424C17.892 42.107 17.3737 41.7037 16.6786 41.6803C15.5521 41.6422 14.8672 42.5119 14.5055 43.2185C13.8476 44.522 13.1841 45.8267 12.5261 47.1302C10.9575 43.1914 9.45358 39.2361 8.0174 35.272C6.02949 29.7922 4.14674 24.2459 3.96002 18.5528C3.77479 12.8637 5.38928 6.95725 9.95777 1.92173C10.5022 1.32377 11.0957 0.572895 10.5597 0.0125076C7.93819 0.53034 6.26937 2.2297 5.10326 3.84989C1.24107 9.20638 0.0272172 15.1713 0.488684 20.9343C0.95015 26.6974 3.02406 32.2958 5.49016 37.7728C7.29937 41.8007 9.32642 45.7786 11.5628 49.6995C9.42748 47.6379 6.53924 45.9186 3.17673 44.7162C4.92446 48.549 9.33953 51.7497 15.0002 53.2897L14.9946 53.2907ZM14.7193 44.1655C14.828 44.1869 14.865 44.2854 14.7859 44.3427C14.6773 44.3213 14.6403 44.2228 14.7193 44.1655ZM14.6387 45.1476C14.6995 45.136 14.7276 45.2109 14.6669 45.2225C14.6102 45.2291 14.578 45.1592 14.6387 45.1476ZM14.0352 45.6514C14.0794 45.6429 14.1225 45.6473 14.1494 45.6718C14.2537 45.7447 14.0213 45.882 13.9155 45.8051C13.8422 45.7516 13.9359 45.6703 14.0352 45.6514ZM13.3836 47.397C13.4923 47.4184 13.5293 47.5169 13.4502 47.5742C13.3416 47.5528 13.3046 47.4543 13.3836 47.397ZM13.3733 47.7789C13.4499 47.7938 13.4997 47.8476 13.4899 47.9002L13.5009 47.898C13.5061 47.9435 13.3803 47.9549 13.3474 47.9147C13.3146 47.8745 13.348 47.8217 13.3788 47.7778L13.3733 47.7789ZM13.4099 48.27C13.4375 48.2648 13.4681 48.2674 13.481 48.286C13.4958 48.3254 13.3784 48.3436 13.3596 48.3092C13.3522 48.2895 13.3823 48.2753 13.4099 48.27ZM12.8902 47.6897C12.9509 47.6781 12.9775 47.749 12.9183 47.7645C12.8631 47.7751 12.8294 47.7013 12.8902 47.6897ZM6.67288 2.64231C6.77616 2.55502 6.93947 2.48582 6.97719 2.38151C7.10979 2.4195 7.11043 2.56292 6.97983 2.60898L6.98427 2.6208C6.90199 2.71673 6.81271 2.80978 6.72491 2.90677C6.5596 2.89192 6.56408 2.73064 6.67288 2.64231ZM10.4755 46.8213C10.4698 46.759 10.5503 46.7057 10.6442 46.6877C10.6883 46.6793 10.7299 46.6798 10.7705 46.6931C10.892 46.7332 10.9007 46.8667 10.7841 46.9185C10.6675 46.9703 10.4804 46.9132 10.4769 46.8252L10.4755 46.8213ZM6.16152 3.40704C6.22224 3.39544 6.25036 3.47027 6.18964 3.48187C6.13296 3.48848 6.10633 3.41759 6.16152 3.40704ZM5.37986 4.11366L5.38282 4.12154C5.4655 4.04242 5.54818 3.96329 5.63085 3.88417C5.71077 4.09687 5.48521 4.34683 5.15698 4.41799C4.99302 4.34378 5.19702 4.17815 5.37986 4.11366ZM5.12706 4.5588C5.15574 4.54066 5.19142 4.5254 5.23006 4.51801C5.30734 4.50325 5.38797 4.51317 5.44289 4.54911C5.41177 4.63949 5.30001 4.71995 5.1635 4.75026L5.13886 4.76341C5.05042 4.71698 5.04802 4.61612 5.12706 4.5588ZM4.59271 5.23083C4.67079 5.24969 4.7191 5.29956 4.70926 5.35209L4.71478 5.35104C4.72002 5.39648 4.59415 5.40787 4.56131 5.3677C4.52847 5.32754 4.55635 5.27578 4.58719 5.23189L4.59271 5.23083ZM3.99451 6.01638C4.11943 6.08117 4.26603 6.12492 4.42582 6.14082C4.46306 6.36589 4.33282 6.60187 4.08319 6.772C3.97487 6.53095 3.94935 6.27409 4.00151 6.01926L3.99451 6.01638ZM3.7038 6.84871C3.76451 6.83711 3.79263 6.91195 3.73191 6.92355C3.67119 6.93515 3.64308 6.86032 3.7038 6.84871ZM3.91066 7.61974C3.92398 7.65519 3.80955 7.68128 3.78923 7.64294C3.77443 7.60356 3.89182 7.58534 3.91066 7.61974ZM3.46192 7.22844C3.46972 7.26494 3.35932 7.28604 3.34048 7.25165C3.32568 7.21226 3.44308 7.19405 3.46192 7.22844ZM3.28316 7.69743C3.40324 7.73359 3.40535 7.88094 3.26696 7.8905L3.25592 7.89261C3.33628 7.94902 3.3166 8.0541 3.2206 8.09778C3.17176 7.9678 3.18916 7.82516 3.27764 7.69849L3.28316 7.69743ZM2.89743 9.48935C3.02491 9.5452 3.07079 9.6673 3.00655 9.76401L2.99551 9.76612C2.86655 9.70633 2.82619 9.58317 2.89743 9.48935ZM2.29152 9.8922L2.32208 9.8948C2.3252 9.79289 2.32685 9.68703 2.32997 9.58512C2.53456 9.73599 2.55564 9.98104 2.38812 10.165C2.2702 10.1031 2.2328 9.98785 2.29852 9.89508L2.29152 9.8922ZM2.28672 10.8557C2.34192 10.8451 2.40304 10.8503 2.44099 10.8726C2.40247 10.9433 2.24792 10.9728 2.165 10.9254C2.18076 10.8886 2.23152 10.8662 2.28672 10.8557ZM2.23047 11.8711C2.23587 11.8068 2.30791 11.7466 2.39435 11.709C2.46394 11.721 2.50822 11.7759 2.4899 11.8216L2.47375 11.8416C2.56178 11.8712 2.51302 11.9776 2.41071 11.9887C2.30839 11.9998 2.21955 11.9366 2.22495 11.8722L2.23047 11.8711ZM1.89568 11.7831C1.89568 11.7831 1.9288 11.7768 1.94832 11.7815C2.05951 11.7941 2.07847 11.8918 2.04547 11.9614C2.00695 12.0321 1.93936 12.1041 1.96451 12.1711C1.9096 12.1351 1.8602 12.0981 1.8108 12.0611L1.845 12.0419C1.77232 11.9587 1.77976 11.8053 1.89568 11.7831ZM1.39007 14.4212C1.3506 13.9855 1.45248 13.548 1.55584 13.1146C1.5898 12.9688 1.62376 12.823 1.66324 12.6761C1.68076 12.5968 1.76156 12.4969 1.86091 12.4779C1.88851 12.4726 1.91907 12.4752 1.95259 12.4857C2.04359 12.5232 2.01247 12.6136 1.97247 12.6803C1.72923 13.1194 1.66827 13.587 1.61135 14.0496C1.59179 14.218 1.56819 14.3914 1.54863 14.5598C1.45331 14.5737 1.40419 14.4903 1.39707 14.4241L1.39007 14.4212ZM1.24075 15.0787C1.29823 15.1058 1.36419 15.1396 1.36391 15.1861C1.36363 15.2326 1.24663 15.2676 1.21931 15.2264L1.23035 15.2243C1.18499 15.1823 1.19039 15.1179 1.24627 15.0777L1.24075 15.0787ZM1.27922 15.7637C1.3289 15.7543 1.3775 15.7576 1.41802 15.771C1.53554 15.8161 1.53174 15.9477 1.40814 15.9966C1.28454 16.0456 1.11103 15.9774 1.11307 15.8884C1.11443 15.829 1.19091 15.7806 1.27922 15.7637ZM1.26522 16.3406C1.29282 16.3353 1.32338 16.3379 1.3363 16.3565C1.34558 16.397 1.2337 16.4141 1.21486 16.3797C1.20746 16.36 1.23762 16.3458 1.26522 16.3406ZM0.966458 17.5924C0.905142 17.2875 1.03742 16.9625 1.32666 16.7088C1.32365 16.874 1.31917 17.0353 1.31617 17.2005C1.30205 17.714 1.2894 18.2315 1.2808 18.7439C1.2816 18.7775 1.27284 18.8172 1.22464 18.8306C1.09521 18.5176 1.05005 18.1928 1.09213 17.8639C1.10777 17.7638 1.10754 17.6372 0.971977 17.5913L0.966458 17.5924ZM1.26016 19.5078L1.27336 19.4799C1.38911 19.5676 1.34707 19.7233 1.1878 19.7876C1.06544 19.7138 1.10896 19.562 1.26016 19.5078ZM11.8468 48.9909C12.1672 49.2927 12.2862 49.688 12.1606 50.0623C11.7954 49.8619 12.1274 49.4228 11.8633 49.1608C11.5693 48.8666 11.403 48.5185 11.3876 48.1626C11.6677 48.3412 11.8221 48.5946 11.8145 48.8578C11.8142 48.9043 11.8044 48.9568 11.8483 48.9949L11.8468 48.9909ZM11.3622 47.969C11.0494 47.8135 10.8781 47.5465 10.9203 47.2809C11.2331 47.4364 11.4044 47.7034 11.3622 47.969ZM1.3561 21.3849C1.43418 21.4038 1.4825 21.4537 1.47266 21.5062L1.47818 21.5052C1.48342 21.5506 1.35754 21.562 1.3247 21.5218C1.29186 21.4817 1.31974 21.4299 1.3561 21.3849ZM1.48561 22.5169C1.60137 22.6046 1.72264 22.6912 1.83692 22.7749L1.84284 22.7906C1.78668 22.8773 1.5632 22.8652 1.49349 22.7898C1.42229 22.7106 1.45045 22.6123 1.48561 22.5169ZM1.71612 23.5241C1.7736 23.5511 1.83955 23.5849 1.83927 23.6314C1.83899 23.6779 1.722 23.7129 1.69468 23.6717L1.7002 23.6707C1.65484 23.6287 1.66024 23.5643 1.71612 23.5241ZM9.14908 43.6848C9.21476 43.7651 9.31207 43.8351 9.42959 43.8802C9.38959 43.947 9.23503 43.9765 9.15764 43.928C9.0894 43.8566 9.08296 43.7607 9.14356 43.6858L9.14908 43.6848ZM1.77939 24.0861C1.90687 24.142 1.95275 24.2641 1.88299 24.3618L1.87639 24.3758C1.81123 24.3756 1.73907 24.3725 1.67243 24.3683C1.70759 24.2729 1.74423 24.1815 1.78087 24.0901L1.77939 24.0861ZM1.9067 24.8344C2.01534 24.8558 2.05382 24.9582 1.9733 25.0116C1.86466 24.9901 1.82766 24.8917 1.9067 24.8344ZM2.14784 26.4052C2.10645 26.1218 2.06505 25.8384 2.02365 25.555C2.30885 25.8889 2.40312 26.2973 2.289 26.6864C2.17916 26.6145 2.16276 26.5079 2.14784 26.4052ZM4.74417 33.9766C4.80165 34.0036 4.86761 34.0374 4.86733 34.0839C4.86704 34.1304 4.75153 34.1694 4.72273 34.1242L4.73377 34.1221C4.68841 34.0801 4.69381 34.0158 4.74969 33.9755L4.74417 33.9766ZM3.86953 31.6487C3.76089 31.6273 3.72389 31.5288 3.80293 31.4715C3.91157 31.493 3.94857 31.5914 3.86953 31.6487ZM4.00272 32.0032C3.942 32.0148 3.91388 31.94 3.9746 31.9284C4.03532 31.9168 4.06196 31.9877 4.00272 32.0032ZM4.0412 32.1056C4.0412 32.1056 4.07136 32.0914 4.0824 32.0893C4.19832 32.0672 4.34395 32.1871 4.23179 32.2508C4.11008 32.3205 3.91396 32.1764 4.03568 32.1067L4.0412 32.1056ZM3.84029 31.1773C3.68049 31.1614 3.75889 30.9606 3.90913 30.9826C4.0634 30.9996 3.98905 31.1953 3.83477 31.1783L3.84029 31.1773ZM2.61306 27.7221L2.61858 27.721C2.57175 27.6751 2.57715 27.6107 2.63855 27.5695C2.72294 27.6209 2.7967 27.6912 2.77218 27.7677C2.74766 27.8441 2.5729 27.8986 2.50763 27.8351C2.54143 27.7991 2.57375 27.7591 2.61158 27.7181L2.61306 27.7221ZM7.21639 39.7691C7.00724 39.5431 6.90808 39.2792 6.93076 39.0089C7.13992 39.2349 7.23907 39.4988 7.21639 39.7691ZM2.72886 28.2192C2.66814 28.2308 2.6415 28.1599 2.70074 28.1444C2.75594 28.1338 2.78958 28.2076 2.72886 28.2192ZM3.50323 30.4691C3.49862 30.5671 3.5577 30.6614 3.66458 30.7254C3.7265 30.7642 3.8105 30.7988 3.79662 30.8563C3.78017 30.9228 3.6337 30.9424 3.54822 30.9038C3.46826 30.8642 3.4431 30.7972 3.41942 30.7342C3.38391 30.6397 3.37411 30.5191 3.50175 30.4652L3.50323 30.4691ZM4.26103 32.7222C4.36751 32.7694 4.42914 32.8547 4.42011 32.9409C4.48982 33.0162 4.49626 33.1121 4.43162 33.192C4.28303 33.0642 4.21791 32.8909 4.25699 32.7272L4.26103 32.7222ZM4.90696 34.4099C5.06416 34.6078 5.16763 34.8202 5.21039 35.0442C5.13755 35.0708 5.06971 35.0162 5.03943 34.9671C4.93824 34.7923 4.88928 34.599 4.90696 34.4099ZM5.38483 35.2093C5.54538 35.4319 5.6331 35.6811 5.64462 35.9322C5.52146 35.8249 5.3777 35.7257 5.3053 35.596C5.22887 35.4713 5.23887 35.309 5.39034 35.2083L5.38483 35.2093ZM6.20187 37.4469C6.04571 37.4092 6.00859 37.2474 6.13987 37.1716L6.17271 37.2118C6.22843 37.2814 6.24295 37.3673 6.20187 37.4469ZM6.18351 37.6657C6.18351 37.6657 6.20559 37.6615 6.21663 37.6594C6.32703 37.6383 6.42594 37.7756 6.30195 37.8077L6.18835 37.6943L6.18903 37.6646L6.18351 37.6657ZM6.68261 38.6004L6.69917 38.5972C6.83717 38.5709 6.92948 38.7221 6.80589 38.771C6.77333 38.6844 6.67453 38.6104 6.54341 38.5763C6.55877 38.5227 6.71601 38.5476 6.68261 38.6004ZM7.38854 40.4792C7.33538 40.4007 7.28183 40.3054 7.35898 40.2273C7.37662 40.2113 7.40274 40.2021 7.43034 40.1968C7.5297 40.1778 7.66526 40.2237 7.60574 40.2857C7.50582 40.3977 7.56462 40.5385 7.66825 40.6411C7.77189 40.7437 7.92225 40.829 8.0108 40.9387C8.02224 40.9534 8.03516 40.972 8.03004 40.9899C8.0272 41.0453 7.91276 41.0714 7.83872 41.0476C7.76469 41.0237 7.72741 40.9717 7.69161 40.9237C7.58826 40.7746 7.4849 40.6255 7.38854 40.4792ZM7.91824 41.2434C7.97572 41.2704 8.04168 41.3043 8.0414 41.3508C8.04112 41.3973 7.9256 41.4362 7.8968 41.3911L7.90784 41.389C7.86248 41.347 7.86788 41.2826 7.92376 41.2424L7.91824 41.2434ZM8.18759 41.9603C8.34171 42.0871 8.46162 42.233 8.53334 42.3924C8.46146 42.3428 8.3951 42.2922 8.32323 42.2426L8.34531 42.2384C8.17555 42.2117 8.09023 42.0633 8.18907 41.9642L8.18759 41.9603ZM8.78365 43.3578C8.68313 43.1532 8.62677 42.9402 8.60502 42.7249C8.70865 42.8275 8.81633 42.9251 8.91996 43.0277L8.96413 43.0193C8.93005 43.1018 9.03032 43.1798 9.0684 43.2654C9.10096 43.352 9.00144 43.4808 8.87585 43.4457C8.82281 43.4305 8.79697 43.3932 8.78217 43.3538L8.78365 43.3578ZM9.32783 44.3809C9.27843 44.344 9.28531 44.2835 9.33567 44.2444C9.5551 44.2615 9.70598 44.4269 9.62746 44.5643C9.48422 44.5453 9.36335 44.4755 9.31275 44.3881L9.33483 44.3838L9.32783 44.3809ZM9.66865 45.1306C9.54522 45.0698 9.50082 44.9516 9.56654 44.8588C9.64314 44.8737 9.69846 44.9265 9.68861 44.979C9.73545 45.025 9.73005 45.0893 9.66865 45.1306ZM9.95084 45.6297C10.3084 45.8569 10.4823 46.1783 10.6449 46.485C10.6508 46.5007 10.6567 46.5165 10.6627 46.5322C10.6594 46.5708 10.5881 46.6014 10.5295 46.5872C10.4835 46.5749 10.4591 46.5416 10.4417 46.5111C10.2781 46.2173 10.1145 45.9235 9.95084 45.6297ZM11.7084 51.7403C11.8651 51.8581 12.0232 51.9799 12.1744 52.0988C12.1866 52.1471 12.0581 52.1041 12.0513 52.0547L12.0367 52.0786C11.861 52.0362 11.6989 51.9828 11.5434 51.9154C11.5989 51.8583 11.6529 51.7974 11.7084 51.7403ZM10.8166 51.4295C11.0869 51.4876 11.2904 51.6513 11.3184 51.836L11.1149 51.6722L11.1476 51.6491C10.9544 51.686 10.7612 51.5498 10.8166 51.4295ZM9.42286 50.0662C9.5315 50.0877 9.56998 50.1901 9.48946 50.2435C9.38082 50.222 9.34382 50.1235 9.42286 50.0662ZM7.71339 48.9491L7.73439 48.9577C7.73439 48.9577 7.74947 48.9506 7.76051 48.9485C7.82123 48.9369 7.89499 49.0073 7.82215 49.0338C7.75727 48.9871 7.66775 48.9536 7.56908 48.9429C7.57191 48.8875 7.74827 48.9002 7.71487 48.953L7.71339 48.9491ZM6.75482 48.5708C6.81554 48.5592 6.84365 48.634 6.78294 48.6456C6.72222 48.6572 6.69558 48.5863 6.75482 48.5708ZM5.05931 46.4673C5.4257 46.7182 5.57585 47.0863 5.94224 47.3371C6.15788 47.4859 6.47515 47.6532 6.35515 47.8535C6.0126 47.5559 5.67005 47.2583 5.3275 46.9607C5.16046 46.8153 4.98455 46.6463 5.05231 46.4644L5.05931 46.4673ZM4.74932 46.2564L4.77032 46.265C4.77032 46.265 4.7854 46.2579 4.79644 46.2558C4.85716 46.2442 4.93091 46.3145 4.86359 46.3401C4.79724 46.2894 4.7092 46.2598 4.61052 46.2491C4.60784 46.1948 4.78972 46.2064 4.75632 46.2593L4.74932 46.2564ZM4.39561 45.8976L4.40517 45.8915C4.41621 45.8894 4.42617 45.9002 4.43061 45.912C4.43505 45.9238 4.43949 45.9356 4.41189 45.9409C4.36773 45.9493 4.33085 45.9142 4.31901 45.8827L4.31605 45.8748C4.06134 45.8897 3.86254 45.6913 3.9727 45.5436C4.1757 45.6272 4.32429 45.755 4.39305 45.9065L4.39561 45.8976Z" fill="#FF7A00"/>
</svg>
