<svg width="73" height="20" viewBox="0 0 73 20" fill="none" xmlns="http://www.w3.org/2000/svg">
<path d="M72.8765 10.8282C68.8276 9.04656 64.7734 7.27087 60.7245 5.4892C60.1445 5.23478 59.5473 4.97587 58.9297 5.00537C58.3121 5.03488 57.6677 5.4264 57.5031 6.09021C57.2362 7.16606 58.2808 8.05964 59.1668 8.59782C60.8032 9.58182 62.4399 10.5714 64.0762 11.5554C58.4515 12.0111 52.8168 12.3999 47.1832 12.7211C39.3951 13.1676 31.5372 13.4948 23.8053 12.1476C16.0791 10.8 8.40342 7.65916 2.47018 1.90405C1.76598 1.21878 0.864454 0.445209 0.00436758 0.811564C0.202879 3.4778 2.18089 5.5425 4.14805 7.10132C10.6503 12.2616 18.4818 15.032 26.3607 16.133C34.2397 17.2341 42.2046 16.7366 50.0805 15.8283C55.8717 15.1647 61.6369 14.2775 67.3652 13.1733C64.1697 14.6789 61.2929 17.0021 59.0243 19.9212C64.54 19.2645 69.7114 15.8667 72.8761 10.8226L72.8765 10.8282ZM60.4879 8.64572C60.5377 8.54674 60.6779 8.53749 60.7403 8.62906C60.6905 8.72804 60.5503 8.7373 60.4879 8.64572ZM61.8002 8.9869C61.7962 8.92525 61.9027 8.91822 61.9068 8.97987C61.9049 9.03628 61.8043 9.04855 61.8002 8.9869ZM62.3657 9.70384C62.3628 9.65901 62.377 9.61866 62.4151 9.59926C62.5337 9.51826 62.6748 9.77913 62.5507 9.8605C62.4643 9.91686 62.3724 9.80472 62.3657 9.70384ZM64.6009 10.8003C64.6507 10.7013 64.7908 10.6921 64.8532 10.7836C64.8034 10.8826 64.6632 10.8919 64.6009 10.8003ZM65.1152 10.9127C65.15 10.8429 65.2323 10.8093 65.3014 10.8329L65.3007 10.8217C65.3631 10.8288 65.3544 10.9532 65.2938 10.9741C65.2333 10.995 65.1682 10.9486 65.1148 10.9071L65.1152 10.9127ZM65.7862 11.0091C65.7843 10.9811 65.7937 10.9523 65.8213 10.9449C65.8774 10.9412 65.8796 11.0593 65.8295 11.0682C65.8014 11.07 65.788 11.0372 65.7862 11.0091ZM64.9022 11.3546C64.8981 11.2929 64.999 11.2862 65.0087 11.3475C65.0124 11.4036 64.9062 11.4162 64.9022 11.3546ZM2.81586 5.26418C2.71763 5.1412 2.65532 4.96519 2.52153 4.90084C2.59825 4.7832 2.79224 4.82106 2.82954 4.95932L2.84635 4.95821C2.9603 5.06326 3.06901 5.1743 3.18333 5.28496C3.13163 5.44035 2.91447 5.39276 2.81586 5.26418ZM63.2663 13.4495C63.181 13.4383 63.1243 13.3463 63.118 13.251C63.115 13.2062 63.1237 13.1662 63.1495 13.1307C63.2269 13.0243 63.409 13.0517 63.4568 13.178C63.5045 13.3043 63.3915 13.4694 63.2719 13.4491L63.2663 13.4495ZM3.75184 5.9623C3.74777 5.90065 3.85431 5.89362 3.85838 5.95527C3.85647 6.01168 3.75554 6.01834 3.75184 5.9623ZM4.55754 6.90543L4.56876 6.90469C4.47761 6.80375 4.38646 6.70282 4.29532 6.60189C4.59815 6.5819 4.89289 6.86641 4.92631 7.20193C4.79462 7.34009 4.60974 7.09899 4.55754 6.90543ZM5.11093 7.26855C5.09189 7.23604 5.07809 7.19754 5.0755 7.15831C5.07032 7.07985 5.09916 7.00477 5.15825 6.96147C5.27448 7.01572 5.36187 7.14504 5.37673 7.28478L5.38979 7.31206C5.31011 7.38487 5.17331 7.36013 5.11093 7.26855ZM5.91719 7.96397C5.95761 7.89376 6.03428 7.86056 6.10342 7.88414L6.10305 7.87853C6.16547 7.88567 6.15679 8.01008 6.09622 8.03096C6.03564 8.05185 5.97099 8.01108 5.91756 7.96958L5.91719 7.96397ZM6.86469 8.7514C6.97617 8.64835 7.06336 8.51876 7.11543 8.36897C7.42681 8.39345 7.72089 8.58231 7.90312 8.86861C7.55656 8.90837 7.20442 8.86406 6.86993 8.74542L6.86469 8.7514ZM7.93426 9.25494C7.93019 9.19329 8.03674 9.18626 8.04081 9.24791C8.04488 9.30956 7.93833 9.31659 7.93426 9.25494ZM9.01613 9.26234C9.0666 9.25901 9.07998 9.37633 9.02427 9.38564C8.96819 9.38934 8.96603 9.27128 9.01613 9.26234ZM8.40132 9.58999C8.45215 9.59227 8.45955 9.70436 8.40945 9.71329C8.35337 9.71699 8.35121 9.59893 8.40132 9.58999ZM9.00112 9.88814C9.07297 9.78207 9.27257 9.81956 9.25902 9.95555L9.25976 9.96676C9.35139 9.90442 9.48968 9.95158 9.53036 10.0558C9.3453 10.0681 9.1558 10.013 9.00149 9.89374L9.00112 9.88814ZM11.3497 10.7407C11.4496 10.6328 11.6234 10.6213 11.7419 10.7092L11.7426 10.7204C11.6371 10.8287 11.4629 10.8345 11.3497 10.7407ZM11.7784 11.4329L11.7878 11.4041C11.6506 11.3738 11.5078 11.3438 11.3706 11.3135C11.6137 11.1567 11.949 11.2021 12.1657 11.413C12.0595 11.51 11.8965 11.5152 11.7836 11.4269L11.7784 11.4329ZM13.0799 11.696C13.0762 11.6399 13.0949 11.5824 13.1323 11.5518C13.2205 11.6079 13.2309 11.7648 13.1508 11.832C13.1041 11.807 13.0836 11.752 13.0799 11.696ZM14.4419 12.0226C14.356 12.0001 14.2884 11.9145 14.254 11.8211C14.2836 11.7572 14.3663 11.7293 14.4245 11.7592L14.4485 11.7801C14.5053 11.7032 14.6399 11.7788 14.6353 11.8804C14.6308 11.982 14.5283 12.0507 14.4423 12.0282L14.4419 12.0226ZM14.2589 12.3218C14.2589 12.3218 14.2567 12.2881 14.2668 12.2706C14.305 12.1667 14.4407 12.1747 14.5285 12.2252C14.6167 12.2813 14.7011 12.3658 14.7965 12.3595C14.7374 12.4028 14.6779 12.4405 14.6184 12.4782L14.599 12.44C14.4726 12.4878 14.2667 12.4395 14.2589 12.3218ZM17.7284 13.5169C17.1318 13.438 16.56 13.2225 15.9938 13.0066C15.8032 12.9347 15.6126 12.8629 15.4216 12.7854C15.3177 12.7472 15.1982 12.6425 15.1915 12.5417C15.1896 12.5136 15.199 12.4849 15.2196 12.4554C15.2877 12.3777 15.4039 12.4319 15.4865 12.4884C16.0335 12.8407 16.654 13.0249 17.2684 13.2039C17.4923 13.2679 17.7222 13.3372 17.9461 13.4012C17.9467 13.4968 17.8245 13.5218 17.7336 13.5109L17.7284 13.5169ZM18.5888 13.8372C18.6363 13.7891 18.6946 13.7345 18.7574 13.7473C18.8202 13.76 18.8452 13.8822 18.7842 13.8975L18.7835 13.8863C18.718 13.9187 18.6321 13.8963 18.5884 13.8316L18.5888 13.8372ZM19.5221 13.9839C19.5188 13.9334 19.5327 13.8875 19.5585 13.852C19.6419 13.7508 19.8191 13.7898 19.8616 13.9221C19.9041 14.0544 19.7788 14.2034 19.6588 14.1775C19.5788 14.1603 19.528 14.0736 19.5221 13.9839ZM20.2992 14.1521C20.2974 14.1241 20.3067 14.0953 20.3344 14.0879C20.3908 14.0898 20.3926 14.2022 20.3425 14.2112C20.3145 14.213 20.3011 14.1801 20.2992 14.1521ZM21.9343 14.7759C21.5104 14.7533 21.0963 14.5386 20.8087 14.1917C21.0315 14.2389 21.2487 14.2865 21.4714 14.3337C22.1629 14.485 22.86 14.636 23.5512 14.7818C23.5968 14.7901 23.6487 14.8091 23.6576 14.8592C23.2098 14.9 22.7619 14.8564 22.3254 14.7276C22.1931 14.6857 22.0219 14.652 21.9339 14.7703L21.9343 14.7759ZM24.5798 15.0066L24.5447 14.9864C24.6853 14.8983 24.8879 14.9807 24.9442 15.1514C24.8211 15.2496 24.6242 15.1669 24.5798 15.0066ZM66.4616 12.7095C66.9309 12.4815 67.488 12.4729 67.97 12.6944C67.6293 12.9927 67.0991 12.5548 66.6945 12.7392C66.2405 12.9436 65.738 13.0106 65.254 12.9299C65.5491 12.7078 65.9211 12.627 66.2754 12.7049C66.3382 12.7176 66.4074 12.7412 66.4672 12.7091L66.4616 12.7095ZM64.9874 12.9025C64.7173 13.1624 64.3236 13.2559 63.9727 13.144C64.2428 12.8841 64.6365 12.7906 64.9874 12.9025ZM27.1358 15.4177C27.1762 15.3475 27.2529 15.3143 27.322 15.3378L27.3217 15.3322C27.3841 15.3394 27.3754 15.4638 27.3148 15.4847C27.2543 15.5056 27.1896 15.4648 27.1358 15.4177ZM28.6908 15.5965C28.8315 15.5084 28.9717 15.4147 29.1067 15.327L29.1292 15.3255C29.2357 15.4029 29.1764 15.6151 29.0613 15.6621C28.9405 15.7095 28.813 15.656 28.6908 15.5965ZM30.0964 15.6444C30.1439 15.5963 30.2023 15.5418 30.2651 15.5545C30.3279 15.5672 30.3529 15.6894 30.2919 15.7047L30.2915 15.6991C30.2261 15.7316 30.1401 15.7091 30.0964 15.6444ZM58.7725 13.8868C58.8936 13.8451 59.0069 13.77 59.0904 13.6688C59.1729 13.7253 59.1833 13.8822 59.1029 13.9438C58.9933 13.9905 58.8625 13.971 58.7728 13.8924L58.7725 13.8868ZM30.8683 15.7342C30.9682 15.6263 31.1421 15.6148 31.2609 15.7083L31.2785 15.7184C31.2657 15.7812 31.2477 15.8499 31.2293 15.913C31.1071 15.8535 30.9905 15.7937 30.874 15.7338L30.8683 15.7342ZM31.9042 15.8122C31.954 15.7132 32.0998 15.7036 32.1565 15.7955C32.1068 15.8945 31.9666 15.9038 31.9042 15.8122ZM34.0738 16.0011C33.6828 15.965 33.2918 15.9289 32.9008 15.8928C33.4067 15.7074 33.9768 15.7261 34.481 15.9405C34.3628 16.0271 34.2155 16.0143 34.0738 16.0011ZM44.8059 15.5292C44.8534 15.481 44.9117 15.4265 44.9745 15.4392C45.0373 15.452 45.0679 15.5738 45.0013 15.5894L45.0006 15.5782C44.9352 15.6107 44.8492 15.5882 44.8055 15.5236L44.8059 15.5292ZM41.4917 15.7479C41.4419 15.8469 41.3017 15.8561 41.2393 15.7646C41.2891 15.6656 41.4293 15.6563 41.4917 15.7479ZM41.9964 15.7146C42.0004 15.7762 41.8939 15.7833 41.8898 15.7216C41.8857 15.66 41.9867 15.6533 41.9964 15.7146ZM42.1422 15.705C42.1422 15.705 42.1287 15.6721 42.128 15.6609C42.1202 15.5432 42.3102 15.435 42.3748 15.5602C42.4457 15.6962 42.2135 15.8466 42.1425 15.7106L42.1422 15.705ZM40.8487 15.6496C40.7967 15.7994 40.5403 15.67 40.5987 15.531C40.6511 15.3869 40.9015 15.511 40.8491 15.6552L40.8487 15.6496ZM35.9431 15.9059L35.9427 15.9003C35.8716 15.9331 35.7857 15.9106 35.7416 15.8404C35.8273 15.7728 35.9365 15.7205 36.0351 15.7647C36.1338 15.8088 36.174 15.9919 36.0757 16.0378C36.0335 15.9956 35.9856 15.9537 35.9375 15.9062L35.9431 15.9059ZM53.1094 14.6997C52.7638 14.8407 52.3881 14.8655 52.0271 14.7711C52.3726 14.6301 52.7483 14.6053 53.1094 14.6997ZM36.6373 15.9276C36.6413 15.9892 36.5404 15.9959 36.5307 15.9346C36.527 15.8786 36.6332 15.8659 36.6373 15.9276ZM39.8269 15.7846C39.9585 15.8153 40.0972 15.7837 40.2042 15.6978C40.2685 15.6485 40.3314 15.5768 40.4065 15.6056C40.4932 15.6393 40.4916 15.7858 40.4232 15.8578C40.3543 15.9243 40.259 15.9306 40.1693 15.9365C40.0347 15.9454 39.8698 15.9225 39.8213 15.785L39.8269 15.7846ZM43.0177 15.6584C43.1019 15.5685 43.229 15.5319 43.3438 15.5637C43.4589 15.5167 43.5898 15.5363 43.6854 15.62C43.4842 15.729 43.2375 15.7453 43.0237 15.6637L43.0177 15.6584ZM45.4227 15.4884C45.7204 15.39 46.0273 15.3472 46.3383 15.3661C46.3603 15.4435 46.2736 15.4942 46.2014 15.5102C45.9457 15.5609 45.675 15.5562 45.4227 15.4884ZM46.5949 15.2422C46.9265 15.1472 47.2802 15.1294 47.6219 15.1857C47.4532 15.2756 47.2916 15.3876 47.1024 15.4226C46.9192 15.4629 46.7017 15.4097 46.5945 15.2366L46.5949 15.2422ZM49.776 15.0548C49.6951 15.1952 49.4694 15.1876 49.3921 15.0407L49.4526 15.0198C49.5573 14.9848 49.6762 14.9938 49.776 15.0548ZM50.0683 15.1312C50.0683 15.1312 50.0668 15.1088 50.0661 15.0975C50.0587 14.9855 50.2632 14.9269 50.2829 15.0551L50.1079 15.1342L50.0679 15.1256L50.0683 15.1312ZM51.4273 14.9007L51.4262 14.8839C51.417 14.7438 51.6391 14.6954 51.6816 14.8277C51.5582 14.8358 51.4393 14.9112 51.3682 15.0285C51.2987 14.9993 51.3623 14.8544 51.4273 14.9007ZM54.1023 14.7242C53.986 14.7544 53.8469 14.7805 53.7561 14.6851C53.7378 14.6638 53.7304 14.6362 53.7285 14.6081C53.7219 14.5073 53.8098 14.3889 53.8823 14.4629C54.0145 14.5893 54.216 14.5703 54.3746 14.498C54.5331 14.4256 54.6771 14.3035 54.8424 14.2476C54.8645 14.2405 54.8922 14.233 54.9153 14.2427C54.9897 14.2603 55.0031 14.3777 54.9567 14.4426C54.9103 14.5076 54.8329 14.5296 54.7611 14.5512C54.5397 14.6109 54.3184 14.6705 54.1023 14.7242ZM55.2367 14.4185C55.2842 14.3704 55.3426 14.3159 55.4054 14.3286C55.4682 14.3413 55.4987 14.4632 55.4322 14.4788L55.4314 14.4676C55.366 14.5001 55.28 14.4776 55.2363 14.4129L55.2367 14.4185ZM56.2573 14.3512C56.4582 14.2366 56.6784 14.1601 56.9076 14.1338C56.8268 14.1898 56.7456 14.2401 56.6648 14.2961L56.6634 14.2737C56.5948 14.4302 56.378 14.4727 56.2629 14.3508L56.2573 14.3512ZM58.2605 14.1514C57.9647 14.1934 57.6661 14.1906 57.3707 14.1538C57.5293 14.0815 57.6819 14.0039 57.8404 13.9315L57.8375 13.8866C57.9425 13.9416 58.067 13.8659 58.19 13.8521C58.3134 13.844 58.4685 13.9744 58.397 14.0861C58.3663 14.1332 58.311 14.1481 58.2549 14.1518L58.2605 14.1514ZM59.7478 13.9013C59.6883 13.939 59.608 13.9161 59.5646 13.8571C59.6298 13.6501 59.8822 13.549 60.053 13.6616C59.9998 13.7946 59.8824 13.8924 59.7545 13.9177L59.753 13.8953L59.7478 13.9013ZM60.8264 13.7738C60.7205 13.8765 60.5523 13.8876 60.4395 13.7993C60.4743 13.7295 60.5562 13.6903 60.6253 13.7139C60.6964 13.6811 60.7823 13.7035 60.8264 13.7738ZM61.5551 13.6356C61.9306 13.3519 62.3984 13.2704 62.844 13.1959C62.8664 13.1945 62.8889 13.193 62.9113 13.1915C62.9629 13.205 62.9905 13.282 62.9602 13.3346C62.9347 13.3757 62.885 13.3902 62.8405 13.3988C62.412 13.4778 61.9836 13.5567 61.5551 13.6356ZM70.1519 13.5804C70.3411 13.461 70.536 13.3412 70.7256 13.2274C70.7933 13.2285 70.7106 13.3409 70.6425 13.3342L70.6721 13.3547C70.5811 13.5127 70.4778 13.6546 70.357 13.7864C70.2905 13.7176 70.2184 13.6492 70.1519 13.5804ZM69.5611 14.3568C69.6913 14.1118 69.9516 13.9595 70.2066 13.9821L69.9463 14.1344L69.9212 14.0966C69.9342 14.2928 69.7131 14.4425 69.5611 14.3568ZM67.4516 15.3348C67.5013 15.2358 67.6471 15.2262 67.7039 15.3181C67.6541 15.4171 67.5139 15.4263 67.4516 15.3348ZM65.6143 16.6831L65.63 16.6652C65.63 16.6652 65.6233 16.6487 65.6226 16.6375C65.6185 16.5759 65.7277 16.5236 65.7497 16.601C65.6742 16.651 65.6117 16.7283 65.5783 16.8206C65.504 16.803 65.5549 16.6364 65.6199 16.6827L65.6143 16.6831ZM64.9195 17.5057C64.9155 17.4441 65.022 17.4371 65.0261 17.4987C65.0301 17.5604 64.9292 17.567 64.9195 17.5057ZM61.7516 18.5761C62.1608 18.2901 62.6872 18.2441 63.0964 17.9582C63.3387 17.7902 63.6257 17.5292 63.8734 17.6986C63.4056 17.949 62.9377 18.1994 62.4699 18.4498C62.2414 18.5719 61.9792 18.6961 61.7464 18.582L61.7516 18.5761ZM61.4072 18.8183L61.4229 18.8004C61.4229 18.8004 61.4162 18.7839 61.4154 18.7727C61.4113 18.7111 61.5205 18.6589 61.5422 18.7306C61.461 18.781 61.4041 18.8579 61.3708 18.9502C61.2968 18.9382 61.3474 18.766 61.4124 18.8123L61.4072 18.8183ZM60.8545 19.0631L60.8481 19.0522C60.8474 19.041 60.8638 19.0343 60.8806 19.0332C60.8975 19.0321 60.9143 19.031 60.9161 19.059C60.9191 19.1038 60.8645 19.1299 60.8196 19.1329L60.8084 19.1336C60.7798 19.3832 60.4736 19.5216 60.295 19.3758C60.4469 19.2025 60.6481 19.0936 60.866 19.0679L60.8545 19.0631Z" fill="#FF7A00"/>
</svg>
