<svg width="540" height="10" viewBox="0 0 540 10" fill="none" xmlns="http://www.w3.org/2000/svg">
<path d="M1.82263 0.653419C11.4672 0.958626 21.2308 1.24597 30.993 1.57653C46.7306 2.11781 62.3595 2.35288 77.9565 1.72189C86.7925 1.37435 95.9603 1.7726 105.019 1.86464C112.124 1.9381 119.169 2.0529 126.275 2.10475C128.643 2.11484 131.013 2.10332 133.268 1.95842C150.3 0.918678 167.531 1.05307 184.9 2.44614C187.204 2.62719 189.918 2.95097 191.88 2.7103C200.203 1.74098 208.953 2.23415 217.545 2.11677C224.537 2.01365 231.639 2.19513 238.744 2.26859C247.685 2.35689 256.682 2.53347 265.624 2.57856C274.625 2.62552 283.762 2.11451 292.63 2.65463C304.511 3.39826 316.014 3.00535 327.736 3.16005C339.103 3.30351 350.541 3.10317 361.691 2.61261C369.52 2.27645 376.506 2.36777 383.186 4.65527C388.489 3.65527 394.238 3.53443 400.147 3.95932C400.915 4.00527 401.744 4.03148 402.515 3.99101C410.466 3.55057 418.367 2.78419 426.75 3.65501C433.173 2.82021 439.07 3.65559 444.891 4.986C451.673 4.03281 458.492 3.79445 465.688 4.75744C467.103 4.95361 468.767 4.76839 470.365 4.79734C478.889 4.95895 487.546 4.649 495.415 6.7795C497.118 7.24429 499.726 7.19705 502.324 7.43067C501.645 6.4576 501.133 5.79261 500.623 5.06281C504.132 4.58996 506.894 5.28289 509.479 5.927C511.713 6.47345 511.006 8.22443 508.571 8.42852C506.314 8.61662 503.946 8.60653 501.633 8.70635C495.464 8.98691 489.008 8.97726 483.184 9.61473C476.587 10.3359 470.914 9.91848 465.152 8.58994C463.799 8.28762 462.386 8.00504 460.209 7.54688C455.87 8.05833 451.343 8.86662 446.537 9.12544C439.714 9.49343 432.533 9.95821 425.795 9.50711C412.261 8.58141 399.222 8.86082 386.056 9.41735C383.387 9.52753 380.661 9.57103 377.996 9.57319C367.808 9.5752 357.562 9.55373 347.376 9.53413C333.281 9.49898 319.185 9.46383 305.149 9.45215C299.64 9.45085 294.189 9.53784 288.678 9.60135C282.872 9.67711 277.238 9.88811 271.153 9.39279C265.069 8.89746 258.601 9.25509 252.322 9.29426C239.763 9.3726 227.259 9.58244 214.763 9.55464C194.33 9.51358 173.903 9.32128 153.474 9.1722C132.63 9.01001 111.844 8.9145 91.0045 8.64429C69.7505 8.36097 48.4979 8.03443 27.2535 7.44865C20.2709 7.24931 13.1911 6.37647 6.46771 5.47167C-0.611387 4.57724 -1.17237 3.58631 1.82263 0.653419Z" fill="#4A3AFF"/>
<path d="M539.331 7.80162C536.007 8.02083 532.739 8.32833 529.361 8.39444C528.413 8.40769 527.19 7.76344 526.075 7.4254C526.795 7.1454 527.342 6.68695 528.173 6.62675C531.911 6.44225 535.7 6.49728 539.331 7.80162Z" fill="#4A3AFF"/>
</svg>
