<svg width="244" height="53" viewBox="0 0 244 53" fill="none" xmlns="http://www.w3.org/2000/svg">
<path fill-rule="evenodd" clip-rule="evenodd" d="M183.934 19.9422C184.111 19.7172 184.288 19.4923 184.466 19.2676C184.459 19.2701 184.452 19.2726 184.444 19.2751C183.51 19.5563 182.535 19.7289 181.546 19.7878C180.004 19.879 178.458 19.873 176.919 19.7699C172.133 19.4349 167.406 18.6779 162.82 17.5114C156.893 15.999 151.124 14.0953 145.567 11.8183C140.874 9.90533 136.334 7.8064 131.882 5.62537C131.298 5.51544 130.713 5.40491 130.129 5.29395L130.344 4.867C130.07 4.73126 129.797 4.59528 129.524 4.45905C128.975 4.18475 128.562 3.75531 128.361 3.24799C128.161 2.74072 128.185 2.1889 128.429 1.69183C128.673 1.19482 129.122 0.785095 129.694 0.536499C130.266 0.287903 130.924 0.216675 131.55 0.335693L131.592 0.344482C131.904 0.404724 132.216 0.464355 132.527 0.523438L132.736 0.108887C133.21 0.349426 133.684 0.588745 134.159 0.826782C142.152 2.28558 150.245 3.35876 158.396 4.04077C159.113 4.11261 159.838 4.16229 160.565 4.20508L162.751 4.34448L164.943 4.48798L166.038 4.56165L167.135 4.61218C168.597 4.6817 170.052 4.76056 171.491 4.85541L172.567 4.92914L173.638 4.98413C174.35 5.02319 175.057 5.0675 175.757 5.11713C184.755 5.7074 193.796 5.76453 202.814 5.28815C211.865 4.86359 220.911 4.06396 229.951 3.24298C232.641 3.013 235.331 2.72827 238.03 2.44269C238.243 2.4201 238.457 2.39746 238.67 2.37488C238.901 2.2832 239.131 2.19189 239.362 2.10095L239.429 2.29486C239.72 2.26422 240.012 2.23364 240.303 2.20325L240.33 2.20044C240.971 2.13367 241.617 2.25891 242.153 2.55377C242.689 2.84857 243.08 3.2937 243.255 3.80914C243.43 4.32465 243.378 4.87677 243.109 5.36652C242.84 5.8562 242.37 6.2514 241.785 6.48126C241.519 6.58563 241.253 6.69025 240.988 6.79504L241.057 6.99493C240.782 7.02783 240.507 7.06067 240.233 7.09351C236.23 8.67963 232.252 10.322 228.394 12.139C226.637 12.9251 224.925 13.7741 223.213 14.6232C222.776 14.8402 222.338 15.0573 221.9 15.2733C221.213 15.6065 220.545 15.9635 219.876 16.3205C219.492 16.5256 219.108 16.7308 218.721 16.9314C218.468 17.0659 218.214 17.1995 217.959 17.3331C217.156 17.7551 216.353 18.1772 215.574 18.629L212.497 20.3608C211.847 20.7379 211.205 21.1251 210.563 21.5123C210.202 21.7303 209.84 21.9484 209.478 22.1646L207.97 23.0698L206.495 24.012L203.548 25.903C199.676 28.488 195.89 31.1723 192.214 33.9727C185.539 39.0547 179.164 44.4462 172.881 49.9286L172.766 50.6824L172.238 50.4907C171.813 50.8618 171.389 51.2333 170.966 51.6052L170.933 51.6337C170.646 51.8856 170.273 52.0575 169.865 52.1252C169.457 52.1931 169.034 52.1535 168.657 52.012C168.279 51.8705 167.965 51.6342 167.758 51.3358C167.551 51.0375 167.461 50.692 167.501 50.3475C167.561 49.8461 167.629 49.3455 167.707 48.8459L167.105 48.6277C167.353 48.4136 167.6 48.1995 167.848 47.9856C168.337 45.1838 169.096 42.4161 170.118 39.7095C170.853 37.7642 171.735 35.8588 172.76 34.0048C173.735 32.2248 174.831 30.4915 176.041 28.8131C177.88 26.2658 179.954 23.8412 182.243 21.5612C181.948 21.6938 181.567 21.8248 181.098 21.9477C179.295 22.416 177.441 22.8774 175.561 23.3262C175.18 23.4146 174.799 23.505 174.417 23.5956L174.415 23.5959C172.91 23.9526 171.393 24.312 169.859 24.5618C167.486 24.9493 165.046 25.2346 162.61 25.5193C161.797 25.6144 160.985 25.7094 160.176 25.808L160.159 25.8869L150.985 26.6599C149.472 26.7992 147.954 26.897 146.436 26.9948L146.394 26.9975L141.8 27.3055C141.147 27.3479 140.495 27.3939 139.841 27.4399L139.837 27.4403C138.867 27.5087 137.895 27.577 136.923 27.6338C135.295 27.7233 133.668 27.8242 132.048 27.9498C131.225 28.012 130.403 28.0773 129.58 28.1425L129.578 28.1427L129.562 28.144C128.229 28.2497 126.896 28.3554 125.561 28.4481L119.065 28.8392C115.682 29.0721 112.293 29.2092 108.904 29.3463L108.895 29.3467C108.436 29.3652 107.977 29.3838 107.518 29.4026C107.032 29.4225 106.546 29.4426 106.059 29.4634L102.805 29.5916L99.5495 29.6612L93.0365 29.7938L91.408 29.8231L89.7796 29.8226L86.5223 29.8195L80.0067 29.7987L71.9874 29.6029C71.7022 29.5948 71.417 29.5875 71.1317 29.5805L70.6062 29.5678C69.7299 29.5468 68.8537 29.5258 67.9782 29.4913L63.973 29.3096C63.0687 29.2655 62.1641 29.2252 61.2595 29.1849L61.2481 29.1844C59.4861 29.1059 57.7242 29.0274 55.9647 28.9208L47.9692 28.3896C37.3199 27.592 26.6905 26.5869 16.1351 25.1942C14.5413 24.993 12.9483 24.7472 11.3655 24.4805C10.0403 24.2379 8.7243 23.9705 7.41989 23.7055C7.17071 23.6548 6.92193 23.6043 6.67361 23.554C3.70843 22.9479 1.89831 22.0842 0.873684 21.1515C-0.616124 19.7935 1.42199 18.8654 5.69677 19.1826C7.05038 19.283 8.45532 19.4366 9.86517 19.6229L14.0693 20.2189C26.7222 22.1744 39.5403 23.3423 52.4175 23.7132L57.7987 23.8721C59.597 23.9099 61.3795 23.9814 63.0958 24.1389C68.3023 24.6593 73.5576 24.8057 78.813 24.952L79.6419 24.9752C81.206 24.9972 82.7707 25.0056 84.3352 25.014L84.3699 25.0142C85.5621 25.0207 86.7543 25.0272 87.946 25.0397C88.544 25.043 89.1418 25.0504 89.7396 25.0579L89.7548 25.058C90.5352 25.0677 91.3155 25.0775 92.0958 25.0776L96.2431 25.0813C98.297 25.0952 100.354 25.0972 102.413 25.0876C103.875 25.0691 105.337 25.028 106.8 24.9869H106.802C107.398 24.9702 107.995 24.9535 108.591 24.9383L114.772 24.7584L120.947 24.4902C135.623 23.8823 150.279 22.7822 164.86 21.1066C166.314 20.938 167.75 20.7933 169.167 20.6724C169.862 20.6087 170.557 20.5739 171.245 20.5393H171.245L171.281 20.5375C171.979 20.4904 172.671 20.449 173.357 20.4133C176.101 20.2725 178.749 20.2341 181.272 20.3019C182.332 20.3323 182.919 20.5389 183.002 20.8179C183.263 20.5663 183.527 20.3166 183.794 20.0687C183.841 20.0255 183.888 19.9833 183.934 19.9422ZM185.351 18.1393C185.363 18.1591 185.375 18.1789 185.385 18.1985L185.477 18.1464C185.435 18.144 185.393 18.1417 185.351 18.1393Z" fill="white"/>
</svg>
