<svg width="617" height="102" viewBox="0 0 617 102" fill="none" xmlns="http://www.w3.org/2000/svg">
<path d="M527.932 30.2447C540.295 32.189 552.374 34.6053 564.038 37.4667C576.076 40.3633 587.327 43.9935 597.454 48.2486C600.024 49.3683 602.476 50.5438 604.802 51.7703L605.689 52.2287L606.601 52.7732L608.405 53.8712C609.568 54.6145 610.524 55.4247 611.55 56.2064C615.188 59.4298 617.007 62.9536 616.825 66.4248C616.643 69.8961 614.466 73.193 610.513 75.9853L609.8 76.5073L608.977 76.9932L607.313 77.9566C606.114 78.5599 604.841 79.1382 603.521 79.684L601.411 80.4375C600.724 80.6967 599.99 80.9294 599.215 81.1337C597.785 81.5477 596.302 81.9257 594.773 82.2663C571.656 87.5342 546.436 90.6797 521.222 92.8882C504.381 94.3822 487.368 95.4201 470.394 96.315C461.905 96.7651 453.412 97.1481 444.921 97.568C436.422 97.9649 427.892 98.3015 419.379 98.6714C385.271 100.031 350.91 100.886 316.326 101.021C281.699 101.199 246.888 100.505 212.047 98.9444C177.104 97.3784 142.2 94.6697 107.603 90.8389C104.929 90.5772 102.284 90.2155 99.6259 89.8986L91.6633 88.9115C86.3542 88.2422 81.0555 87.6171 75.7404 86.8568C64.8573 85.4068 54.1709 83.5438 43.7968 81.2878C38.4756 80.0969 33.3226 78.7267 28.3837 77.1895C27.1417 76.7984 25.8996 76.408 24.6974 75.9824C23.4328 75.5695 22.2158 75.1245 21.053 74.6497L17.4093 73.1609C16.2757 72.6246 15.2008 72.0585 14.1055 71.5046C13.0054 70.9512 11.996 70.3619 11.0873 69.7427C10.0945 69.1498 9.19037 68.5285 8.38215 67.8838C7.58466 67.2369 6.77243 66.5928 6.01299 65.9394L4.10432 63.9105C1.82132 61.1747 0.532159 58.326 0.291911 55.4862C0.18821 52.6599 1.1111 49.8925 3.02279 47.2972C4.99149 44.7075 7.99138 42.3477 11.8809 40.3292L14.9162 38.8738C16.0257 38.4398 17.1774 38.0264 18.316 37.6069C18.8777 37.4096 19.4817 37.1656 20.0111 37.0092L21.6185 36.515L24.8335 35.527C26.982 34.8723 29.1071 34.201 31.2772 33.5607L37.8693 31.695C46.6512 29.2015 55.7668 26.9514 64.9705 24.7804C69.6339 23.7465 74.2832 22.6984 78.9985 21.7104L86.1211 20.2725L89.6823 19.5539L93.295 18.884C112.516 15.2873 132.319 12.2596 152.59 9.81775C172.832 7.39591 193.452 5.49202 214.362 4.11431C256.132 1.35151 298.699 0.460416 341.332 0.713398C367.064 0.84886 393.113 1.63924 418.548 2.63231C442.914 3.60076 458.683 4.90863 468.456 6.16378C475.571 7.07779 475.548 7.72393 469.455 8.01387C463.361 8.30381 451.194 8.22319 434.018 7.80666C412.281 7.2736 388.554 6.64233 366.144 6.25C314.579 5.35172 263.211 6.00079 213.427 9.61605C163.737 13.236 115.56 19.809 72.1753 30.1642C60.2495 33.0479 48.487 36.28 37.2052 39.7327C34.4123 40.6129 31.6258 41.491 28.8455 42.3671C27.5734 42.8005 26.5759 43.2172 25.4122 43.6309C24.3378 44.0689 23.4358 44.5834 22.4201 45.0437C18.73 47.0234 16.1927 49.4219 15.012 52.0466C14.1318 54.1277 14.0836 56.3016 14.8697 58.4667L15.205 59.2761C15.2881 59.5469 15.4238 59.816 15.6104 60.0804L16.6664 61.671L18.103 63.2098L18.46 63.5953L18.9178 63.9605L19.8243 64.6929C20.1293 64.9362 20.4117 65.1857 20.7297 65.4258L21.8168 66.1094C22.4929 66.5803 23.2442 67.0293 24.0638 67.4522L26.5467 68.7146L29.3415 69.8422C30.3177 70.2428 31.3448 70.6155 32.4157 70.9579C33.4761 71.3344 34.6049 71.6724 35.7118 72.023C37.9421 72.7156 40.2623 73.3528 42.6124 73.971C52.3751 76.3766 62.5737 78.311 73.0289 79.7403C83.6473 81.3005 94.6776 82.4613 105.509 83.8222C110.956 84.4543 116.442 84.9762 121.906 85.5585L130.11 86.4107C132.85 86.6763 135.602 86.8981 138.347 87.1442L154.824 88.5826L171.347 89.7795C174.102 89.9702 176.851 90.2014 179.609 90.3593L187.883 90.8437C193.399 91.1514 198.91 91.5282 204.428 91.7849C215.465 92.2845 226.496 92.8522 237.527 93.1777C303.15 95.4791 368.806 94.1229 433.592 91.4121C462.48 90.1392 491.42 88.8997 519.345 86.4478C533.266 85.2477 546.917 83.6315 560.214 81.609C563.478 81.0637 566.799 80.5685 569.988 79.9587C571.593 79.663 573.215 79.3804 574.807 79.074L579.536 78.1149C581.127 77.8062 582.669 77.4605 584.203 77.1078C585.723 76.7598 587.327 76.4125 588.779 76.0648C590.052 75.7446 591.262 75.3797 592.402 74.9731C592.987 74.7798 593.544 74.5699 594.069 74.3444L595.593 73.6425C599.494 71.658 601.821 69.0976 602.248 66.3191C602.478 64.9418 602.206 63.5336 601.442 62.1514C601.351 61.9795 601.287 61.8047 601.179 61.6341L600.792 61.1289C600.515 60.7951 600.337 60.4465 599.997 60.1225L599 59.1458C598.652 58.8227 598.261 58.5083 597.829 58.2047C597.011 57.5815 596.098 56.983 595.097 56.4146C593.973 55.8145 592.756 55.1905 591.549 54.5916C589.033 53.3962 586.383 52.2618 583.613 51.1941C577.932 49.0296 571.902 47.0779 565.589 45.3609C552.669 41.892 539.13 39.0166 525.191 36.7809C510.971 34.4551 496.671 32.2712 482.291 30.2294C459.343 26.9893 436.969 23.9992 415.413 21.326C404.638 19.9778 394.069 18.7145 383.745 17.5083C373.428 16.2694 363.343 15.152 353.545 14.0687C344.529 13.0991 340.339 12.3601 341.058 11.9776C341.774 11.6131 347.412 11.553 358.019 12.1399C389.014 13.8487 419.942 16.4084 450.637 19.805C463.434 21.1818 476.308 22.8597 489.18 24.6359C502.049 26.4218 514.909 28.3342 527.642 30.3267C527.734 30.2976 527.821 30.2716 527.932 30.2447Z" fill="#FF7A00"/>
</svg>
