<svg width="13" height="19" viewBox="0 0 13 19" fill="none" xmlns="http://www.w3.org/2000/svg">
<path d="M11.2198 10.799C11.445 10.2564 11.6701 9.71391 11.9001 9.17461C11.9828 8.98351 12.1026 8.78269 12.1561 8.58187C12.1787 8.49765 12.0848 8.41992 12.0265 8.37619C11.7884 8.19643 11.4741 8.09602 11.1858 8.03772C11.0044 8.00047 10.58 7.91625 10.4796 8.14622C10.3517 8.43611 10.1816 8.83451 9.99045 9.29607C9.98235 9.30255 9.97587 9.30255 9.97101 9.29445C9.97263 9.30741 9.97425 9.3236 9.97425 9.3398C9.88841 9.54548 9.7977 9.76411 9.70537 9.99084C9.69403 9.92121 9.70537 9.82889 9.75883 9.69771C9.38466 10.2127 8.97648 11.2913 8.97162 11.7853C8.96514 11.8015 8.95867 11.8177 8.95219 11.8338C8.6995 12.1966 8.96028 11.4193 8.9862 11.1537C8.75134 11.6654 8.54725 12.127 8.3545 12.574C8.3545 12.4412 8.3545 12.3084 8.3545 12.1691C8.17956 12.1399 8.24435 11.9845 8.12449 11.7334L8.18928 11.5796C8.16822 11.6314 8.10829 11.5391 8.0597 11.5731V9.09526C8.12611 9.20538 8.19252 9.33818 8.22977 9.51309C8.08561 8.60454 8.28808 8.211 8.1747 7.22472C8.27513 7.34132 8.3545 8.22882 8.36584 8.47174C8.37555 8.13974 8.30266 7.54214 8.39661 7.51461L8.27027 7.44821C8.25407 6.86033 8.38689 7.52595 8.46788 7.33323C8.4533 6.21739 8.199 6.77126 8.0597 6.43278V5.85138C8.06618 5.80765 8.06618 5.75906 8.0597 5.704V5.27321C8.10667 5.34933 8.16984 5.29912 8.2071 5.26673C7.95117 4.80193 8.25731 4.69828 8.20548 3.83832C8.28809 3.82051 8.30104 4.23511 8.39337 4.28207C8.32858 3.81079 8.29456 3.08525 8.15203 2.97836C8.15041 2.17671 8.20062 1.60664 8.17794 1.12403C8.18442 1.19529 8.18118 1.43173 8.28647 1.44793C8.39013 1.46574 8.41605 1.56292 8.44358 1.65685C8.36259 1.36857 8.30752 1.07382 8.24921 0.780691L8.23949 0.727245L8.22977 0.659228C8.19738 0.456789 8.1666 0.254347 8.12449 0.0535278C7.96413 0.076201 7.83455 0.0972552 7.71631 0.119928H7.12348L7.10404 0.50861C7.07003 0.497273 7.03439 0.464886 6.9777 0.38553C6.94693 0.596067 6.8708 0.88272 6.98418 1.07868C7.07651 1.23577 7.02953 1.47222 7.01334 1.64065L7.06193 1.21796C7.06193 1.23091 7.06355 1.23901 7.06517 1.25035L6.99876 2.57025C6.95665 2.5411 6.92749 2.48603 6.92587 2.62207C6.96798 2.70305 6.98094 2.81155 6.98094 2.93302L6.97446 3.06096C6.94045 3.43992 6.79467 3.9031 6.80277 4.16222L6.79143 4.02619L6.66995 4.59949C6.66995 4.59949 6.66347 4.59949 6.65861 4.60273C6.66995 4.61245 6.67967 4.62379 6.69424 4.63027C6.58572 4.85538 6.49501 5.28617 6.49339 5.76878C6.59544 5.95826 6.4529 7.29598 6.53713 7.52271C6.51931 7.31865 6.52579 7.14699 6.5679 6.89434L6.6991 6.9413C6.67319 7.39477 6.57438 6.96398 6.63107 7.40287C6.81735 7.33485 6.66347 6.7745 6.6991 6.45707C6.73474 6.5753 6.76389 6.73725 6.77199 6.93483C6.77847 6.82794 6.78657 6.72267 6.79467 6.6174L6.77361 7.04981C6.77361 7.01095 6.77361 6.97046 6.77361 6.93483C6.76551 7.08221 6.75741 7.22958 6.75741 7.37695L6.74284 7.67818C6.7153 7.65065 6.68776 7.65875 6.66185 7.74134C6.57438 8.22882 6.63917 8.35028 6.70072 8.54624L6.67805 8.98513C6.6084 9.0742 6.52741 9.00618 6.49501 9.5309L6.4367 9.09201C6.23909 9.50499 6.48529 9.49851 6.43346 9.81756C6.48529 9.71553 6.52903 9.71715 6.54361 9.34952C6.61002 9.31551 6.62135 9.5973 6.62297 9.73172L6.63269 9.64589C6.63269 9.64589 6.63917 9.65884 6.64403 9.66532L6.58896 10.7747C6.58896 10.7747 6.58572 10.786 6.58248 10.7909L6.56628 10.6694C6.576 10.8751 6.56952 11.084 6.56304 11.2638L6.54846 11.5634L6.53551 11.5537C6.53875 11.5763 6.54199 11.5958 6.54523 11.6152L6.52255 12.0476C6.49501 12.0088 6.47234 12.0249 6.47396 12.1999C6.40755 12.1448 6.42374 11.9747 6.42212 11.9002C6.4205 11.7059 6.4367 11.5116 6.461 11.3188C6.44804 11.4193 6.43508 11.6006 6.35247 11.6735C6.28768 11.7318 6.29092 11.4274 6.29254 11.4128C6.18726 11.531 6.3136 11.8403 6.25529 12.0784C6.28768 12.0363 6.31684 12.1156 6.34924 12.0978C6.2148 12.1043 6.29416 12.9821 6.38649 12.9999L6.33466 12.5513C6.40269 12.5335 6.44318 12.7392 6.48206 12.8574L6.38487 14.8154C6.37353 14.8186 6.36219 14.8218 6.35247 14.8251C6.3136 14.7635 6.27635 14.7004 6.23585 14.6372C6.26663 14.3328 6.25529 13.9894 6.22613 13.74C6.15972 14.0283 6.1905 14.3004 6.20022 14.5805C6.02042 14.2906 5.82443 13.9748 5.61872 13.6445C5.66894 13.6218 5.77098 13.6704 5.73859 13.5262C5.51182 13.0631 5.43893 13.1829 5.3466 13.2023C4.72138 12.195 4.05242 11.118 3.54867 10.3131C3.56487 10.3002 3.59565 10.3066 3.64586 10.3374C3.49036 10.0459 3.52924 10.1965 3.51142 10.2564C3.41909 10.1074 3.33325 9.97141 3.25388 9.84347C3.26846 9.8127 3.28789 9.78355 3.38832 9.90987C3.27817 9.65561 3.20852 9.65236 3.13725 9.65884C3.02873 9.48717 2.93802 9.34628 2.86999 9.24263C2.86999 9.24101 2.76957 9.08878 2.64485 8.89768C2.63027 8.83613 2.61893 8.77783 2.62055 8.7341C2.52661 8.59968 2.42618 8.44907 2.2885 8.35838C2.20427 8.23205 2.0504 8.16727 1.91596 8.10573C1.98075 8.11221 2.0261 8.09925 2.03744 8.04905C1.85765 8.02961 1.72483 8.00856 1.60172 7.98103C1.35714 7.8952 1.09636 7.83042 0.901988 7.81908C0.89227 7.80613 0.884171 7.79155 0.872833 7.78021L0.89227 7.81908C0.765929 7.8126 0.581276 7.82394 0.612052 7.99561C0.613671 8.00856 0.615292 8.02152 0.616912 8.03286C0.616912 8.03934 0.620151 8.04581 0.621771 8.05067C0.613672 8.05715 0.607193 8.06201 0.599094 8.06687C0.599094 8.06687 0.599094 8.06686 0.597474 8.06524C0.574798 8.08306 0.55374 8.09925 0.531064 8.11545C0.539162 8.11707 0.542402 8.12841 0.566698 8.13813L0.629869 8.09278C0.634728 8.11059 0.636348 8.12841 0.642827 8.1446C0.636348 8.1446 0.631489 8.14784 0.62339 8.14784C0.594234 8.14622 0.579657 8.14298 0.566698 8.13813L0.36261 8.28712C0.373948 8.29683 0.386906 8.30979 0.412822 8.32761C0.511627 8.38753 0.629869 8.41182 0.740013 8.36648C0.863114 8.58673 1.05263 8.78917 1.22108 8.96731C1.68919 9.70257 3.36564 12.3343 4.70194 14.4769C4.78455 14.7101 4.84448 14.7619 4.89955 14.7959C4.9611 14.8931 5.01941 14.9903 5.07934 15.0842C4.98378 15.0227 4.88335 14.9919 4.79913 14.9255C4.98216 15.1312 5.08096 15.1862 5.18463 15.2526C5.2397 15.3417 5.29477 15.4292 5.3466 15.515C5.34013 15.5425 5.30935 15.5393 5.29801 15.562C5.36604 15.6397 5.42435 15.6915 5.48104 15.7352C5.6414 15.9976 5.7888 16.2389 5.91838 16.4543C5.92 16.4673 5.94106 16.5029 5.99613 16.5855C6.14029 16.8268 6.28606 17.0681 6.41564 17.3191C6.54037 17.5604 6.77037 17.677 7.01981 17.7726C7.0846 17.8228 7.12024 17.8617 7.12672 17.8876C7.14778 17.8681 7.18179 17.8519 7.22552 17.8406C7.54948 17.9345 7.88315 17.9588 8.0354 17.8438C8.03702 17.8438 8.03864 17.8406 8.04188 17.8406C8.06132 17.8277 8.07914 17.8115 8.09047 17.792C8.09371 17.7888 8.09857 17.7855 8.10181 17.7823C8.23463 17.6641 8.35287 17.5264 8.45978 17.3807C8.62175 17.3288 8.38851 17.6608 8.36259 17.6965C8.27837 17.8196 8.17146 17.9637 8.0435 18.0414C8.21682 17.9799 8.34154 17.7936 8.43872 17.6463C8.55049 17.4616 8.58612 17.2381 8.64443 17.0325C8.71084 16.9062 8.75782 16.7183 8.79993 16.532C8.89711 16.3037 9.00726 16.0818 9.1093 15.8551C9.10768 15.8745 9.10282 15.894 9.1012 15.9134C9.29558 15.434 9.35875 15.7255 9.48347 15.2219C9.43001 15.2818 9.35713 15.3547 9.29072 15.4437C9.3879 15.217 9.50452 14.9417 9.63572 14.6307C9.68108 14.5514 9.72157 14.5222 9.74587 14.6048C9.84305 14.3587 9.88193 14.1659 9.86573 14.0817C9.92242 13.9441 9.98073 13.8032 10.0407 13.6574C10.0471 13.8663 9.9046 14.2615 10.1459 13.8712L10.1994 13.4388C10.2788 13.3934 10.5363 12.7764 10.6335 12.8509C10.708 12.6274 10.674 12.5723 10.7177 12.3829C10.8424 12.2403 10.9364 12.1335 10.9461 11.8889C10.4877 12.7845 10.5768 12.4962 10.2124 13.2833C10.2075 13.2736 10.2107 13.2525 10.2172 13.2282C10.4861 12.5788 10.7712 11.8873 11.0433 11.2265C11.1129 11.1779 11.0805 11.4176 11.1113 11.4695C11.3559 11.003 11.1956 10.9091 11.4256 10.5091C11.2441 11.2006 11.5908 10.3002 11.7479 10.1139C11.5972 10.19 11.4353 10.3828 11.2231 10.7957L11.2198 10.799ZM8.0597 1.52728C8.06942 1.49651 8.07914 1.4625 8.09047 1.41716L8.0597 2.19776V1.5289V1.52728ZM6.38163 14.8704C6.37191 14.8559 6.36219 14.838 6.35247 14.8235C6.36381 14.8202 6.37515 14.817 6.38487 14.8154L6.38163 14.872V14.8704ZM6.83516 5.84004C6.83192 5.61979 6.81087 5.41411 6.7477 5.23596C6.75094 5.22624 6.75255 5.21815 6.75579 5.21167C6.79467 5.09344 6.84488 5.12907 6.86756 5.21653L6.83678 5.83842L6.83516 5.84004ZM6.86756 5.21005C6.84974 5.06915 6.8627 4.99466 6.88052 4.93636L6.86756 5.21005ZM11.053 11.2039C11.0967 11.0986 11.1389 10.9949 11.1826 10.8929L11.2279 10.9674C11.1324 11.2022 11.1324 11.1018 11.0546 11.2039H11.053Z" fill="#FF7A00"/>
</svg>
