<svg width="282" height="153" viewBox="0 0 282 153" fill="none" xmlns="http://www.w3.org/2000/svg">
<path d="M270.069 58.0623C268.683 55.504 266.535 52.6768 264.23 53.1211C263.951 53.1748 263.678 53.2552 263.394 53.4206C253.499 58.6517 243.469 63.0499 233.341 66.6638C229.213 68.1517 225.055 69.4794 221.189 71.7757C231.361 74.6629 242.626 73.1292 252.586 67.4147C252.93 68.6505 251.894 69.8196 250.994 70.6025C240.258 79.7905 229.569 89.2189 218.824 98.9071C221.43 98.7929 224.027 97.8213 226.263 96.1993C226.15 95.6117 226.229 94.9316 226.466 94.3874C226.848 94.8679 227.234 95.375 227.616 95.8555C231.893 93.6462 236.048 91.0727 240.034 88.1716C239.136 88.0122 238.213 87.8577 237.31 87.6716C243.259 86.9129 248.472 82.1964 253.112 77.5072C247.971 87.5008 242.054 97.8375 241.119 109.209C247.645 104.627 252.069 97.0433 255.982 89.6689C258.855 84.2674 261.587 78.8103 264.182 73.3241C260.901 76.4771 258.374 80.8145 257.131 85.5417C256.503 82.56 257.968 78.9814 260.387 77.4903C259.757 77.0854 259.491 76.1118 259.752 75.2858C260.478 75.5061 261.221 74.7258 261.664 73.8924C262.088 73.0906 262.455 72.1334 263.153 71.6664C263.851 71.1994 264.948 71.8468 264.642 72.7092C265.145 71.5042 265.618 70.2773 266.096 69.0771C265.492 68.9441 264.889 68.8112 264.28 68.6515C263.877 66.1529 265.589 63.7179 267.364 62.157C269.138 60.5962 271.208 59.3385 272.403 57.0861C271.621 56.572 270.456 57.0735 270.018 58.072L270.069 58.0623ZM229.196 70.9251C228.937 70.8088 228.658 70.7241 228.399 70.6078C228.439 70.2677 228.752 69.9857 229.031 70.0705C229.31 70.1552 229.474 70.5946 229.378 70.9176L229.201 70.9518L229.196 70.9251ZM232.486 90.0417C232.253 90.0589 232.019 89.9377 231.892 89.6853C232.169 89.2163 232.848 89.1962 233.098 89.6744C232.957 89.8955 232.719 90.0245 232.486 90.0417ZM245.993 82.1478L246.007 81.6742C246.205 81.7469 246.423 81.788 246.621 81.8606C246.403 81.958 246.186 82.0553 245.968 82.1527L245.993 82.1478ZM247.562 98.7429C247.568 98.908 247.543 99.0513 247.523 99.2213C247.3 99.1535 247.102 99.0809 246.884 99.0398C247.102 98.9424 247.319 98.8451 247.562 98.7429ZM247.556 101.847C247.466 102.058 247.278 102.177 247.096 102.185C246.655 102.214 246.152 101.785 246.363 101.245C246.696 100.517 247.883 101.091 247.551 101.82L247.556 101.847ZM256.73 60.9654C257.029 61.0185 257.207 61.3996 257.117 61.7494L256.94 61.7836C256.666 61.7255 256.392 61.6675 256.113 61.5828C256.122 61.2209 256.43 60.9122 256.73 60.9654ZM254.877 67.0288C255.363 66.8243 255.915 66.8286 256.362 67.1026C256.191 67.4403 255.887 67.6373 255.578 67.6692C255.198 67.7425 254.792 67.5437 254.608 67.1359L254.877 67.0288ZM248.348 65.5999C247.964 65.9233 247.384 65.2318 247.697 64.8113L247.723 64.9449C247.935 64.6824 248.122 64.4248 248.308 64.1671C248.664 64.5141 248.732 65.2766 248.348 65.5999ZM252.748 63.7548C252.469 63.8085 252.241 63.5756 252.012 63.3427C252.295 63.1773 252.604 63.0069 252.887 62.8415L252.908 62.9484C253.232 62.9966 253.098 63.6597 252.799 63.745C252.799 63.745 252.748 63.7548 252.723 63.7597L252.748 63.7548ZM252.378 72.6071L252.399 72.714C252.081 73.1077 251.768 73.5282 251.449 73.9219C251.233 72.8001 251.812 71.442 252.723 70.9894C253.145 71.4067 252.946 72.4147 252.383 72.6338L252.378 72.6071ZM253.086 75.4624C253.461 75.224 253.774 74.8036 253.945 74.3274C254.33 74.2809 254.054 75.1652 253.688 75.0417L253.648 75.1049C253.796 75.3257 253.533 75.598 253.33 75.637C253.229 75.6565 253.137 75.5911 253.112 75.4575L253.086 75.4624ZM252.658 83.4672L252.633 83.4721C252.756 83.8363 252.635 84.3027 252.347 84.5798C252.164 84.3104 251.945 83.9925 252.01 83.6476C252.075 83.3027 252.617 83.1151 252.658 83.4672ZM250.544 86.9494C250.808 86.954 250.81 87.5077 250.556 87.5565C250.293 87.5519 250.291 86.9982 250.544 86.9494ZM250.545 88.9991C250.282 88.9945 250.28 88.4408 250.559 88.3871C250.822 88.3917 250.824 88.9454 250.545 88.9991ZM249.582 97.7719C249.329 97.8207 249.095 97.6995 248.948 97.4787C249.22 96.983 249.945 96.9264 250.189 97.3778C250.053 97.6257 249.815 97.7546 249.562 97.8034L249.582 97.7719ZM251.162 95.4729C250.862 95.1429 250.537 94.8178 250.237 94.4879C250.706 93.6496 251.601 92.9784 252.413 93.2374L252.687 93.2955C252.319 94.1143 251.779 94.8555 251.188 95.468L251.162 95.4729ZM254.438 90.5204C254.171 91.0428 253.625 91.6188 253.209 91.6435C253.032 91.6777 252.885 91.5953 252.768 91.3963L252.848 91.2699C252.872 90.5729 252.915 89.8443 253.309 89.2975C253.703 88.7507 254.574 88.6381 254.749 89.2693C254.876 89.6602 254.655 90.1462 254.463 90.5155L254.438 90.5204ZM255.063 87.4914C255.28 87.394 255.493 87.27 255.711 87.1726L255.702 87.6729C255.484 87.6318 255.286 87.5592 255.068 87.5181L255.063 87.4914ZM255.874 76.9751L255.757 76.9144C255.409 77.7016 255.042 78.5204 254.669 79.3125C253.935 77.8197 255.286 75.4262 256.772 75.6385C256.49 76.0807 256.182 76.5279 255.869 76.9483L255.874 76.9751ZM260.897 57.6415L260.709 57.6222C260.459 57.0056 261.568 56.4873 261.671 57.1599C261.413 57.3204 261.155 57.4809 260.892 57.6147L260.897 57.6415ZM262.807 69.4616C262.431 69.2847 262.333 68.6388 262.576 68.2597C262.843 67.8758 263.396 67.8801 263.625 68.2514C263.357 68.6354 263.07 69.051 262.782 69.4665L262.807 69.4616Z" fill="#FF7A00"/>
<path d="M209.625 99.5719C209.306 99.5504 208.941 99.5653 208.642 99.6506C205.43 100.297 202.233 100.886 199.02 101.394C195.245 101.983 191.455 102.492 187.731 103.348C181.839 104.677 176.112 106.861 170.329 108.89C168.389 109.596 166.156 110.553 165.534 112.778C164.716 115.623 167.102 118.459 166.801 121.398C169.297 122.08 171.814 122.731 174.409 122.702C176.954 122.682 179.451 122.007 181.882 121.123C190.982 117.901 199.37 112.074 206.009 104.396C207.429 102.765 208.874 100.991 210.748 100.353C210.614 99.7968 210.152 99.5811 209.615 99.5185L209.625 99.5719ZM204.991 104.703C204.83 104.956 204.541 105.095 204.298 105.058C204.135 105.034 203.963 104.957 203.856 104.811C204.495 104.716 204.76 103.501 204.191 103.14C204.23 102.8 204.718 103.149 204.597 103.477C205.019 103.618 205.223 104.271 204.966 104.708L204.991 104.703ZM205.943 102.553L205.928 102.473C205.699 102.378 205.87 101.902 206.129 101.88C206.387 101.858 206.565 102.101 206.713 102.321C206.46 102.37 206.217 102.473 205.938 102.526L205.943 102.553Z" fill="#FF7A00"/>
<path d="M106.782 111.94C105.783 111.938 104.739 111.973 103.869 112.501C102.998 113.029 102.368 114.258 102.762 115.346C103.283 116.824 103.364 118.471 102.968 119.96C113.22 125.713 125.061 125.536 136.2 124.303C141.532 123.747 147.318 122.687 150.874 118.235C151.356 118.557 152.015 118.569 152.506 118.253C141.185 114.312 129.48 112.745 117.753 112.152C114.117 111.966 110.452 111.897 106.802 111.908L106.782 111.94ZM147.127 119.788C147.33 119.887 147.199 120.3 146.976 120.232C146.798 120.128 146.904 119.72 147.127 119.788ZM142.068 121.621C141.977 121.833 141.612 121.709 141.667 121.449C141.758 121.238 142.123 121.362 142.068 121.621Z" fill="#FF7A00"/>
<path d="M77.546 106.521C76.9879 106.352 76.4848 105.923 76.0121 105.515C73.7863 103.645 71.4294 102.049 69.0927 100.422C68.4527 99.9636 67.8177 99.5319 67.1776 99.0736C63.4337 96.4156 59.7199 93.641 55.7647 91.5224C54.7086 90.9503 53.5816 90.4195 52.4563 90.4425C51.3309 90.4655 50.1822 91.1855 49.9021 92.4583C49.5918 93.8477 50.3523 95.6125 49.6814 96.7667C48.9499 98.0157 50.2021 99.7412 51.3354 100.714C60.7728 108.784 72.5007 113.062 83.7229 112.533C84.4781 112.498 85.3849 112.296 85.5448 111.49C85.8101 112.048 86.6164 112.142 86.914 111.641C86.2585 111.103 85.6081 110.591 84.9071 110.089C82.6314 108.505 80.1641 107.291 77.6018 106.538L77.546 106.521ZM72.2399 107.073C72.048 107.304 71.6779 107.292 71.4289 107.091C71.3018 106.977 71.1949 106.831 71.1589 106.644C71.5222 106.076 72.517 106.466 72.6001 107.17L72.2348 107.046L72.2399 107.073ZM77.8388 111.313C77.7204 110.698 78.0683 110.05 78.5848 109.867L78.6102 109.862C78.683 110.513 78.3605 111.157 77.8388 111.313Z" fill="#FF7A00"/>
<path d="M13.9396 61.134C13.37 60.4958 12.7394 59.814 11.9936 59.6253C12.4531 59.0105 11.7861 58.0033 11.2014 57.4235C9.03059 55.2934 6.8546 53.1365 4.72413 50.9432C4.10383 50.3148 3.34142 49.6307 2.62736 49.8792C1.35122 50.3467 1.99774 53.0199 1.08858 54.1646C0.578379 54.7892 1.11915 55.9593 1.6587 56.714C9.88505 68.4527 20.7503 77.6607 32.4857 82.7952C29.1281 78.7332 25.7808 74.7245 22.3677 70.7839C19.5599 67.53 16.7573 64.3028 13.9344 61.1073L13.9396 61.134Z" fill="#FF7A00"/>
</svg>
