<svg width="575" height="83" viewBox="0 0 575 83" fill="none" xmlns="http://www.w3.org/2000/svg">
<g clip-path="url(#clip0_140_408)">
<path d="M81.8045 82.2349C70.6015 81.6208 59.953 78.8431 50.2726 74.3364C59.4643 67.8457 67.4906 59.7866 73.938 50.5371C78.4305 60.2779 81.1842 70.973 81.8045 82.2349Z" fill="#07215B"/>
<path d="M31.532 74.3364C21.8515 78.8431 11.203 81.6208 0 82.2349C0.620301 70.973 3.37406 60.2779 7.85714 50.5371C14.3139 59.7866 22.3308 67.8457 31.532 74.3364Z" fill="#07215B"/>
<path d="M68.8722 41.1175C61.8234 52.5117 52.2275 62.1486 40.9023 69.244C29.5677 62.1486 19.9812 52.5117 12.923 41.1175C19.9812 29.7328 29.5677 20.0959 40.9023 13.0005C52.2275 20.0959 61.8234 29.7328 68.8722 41.1175Z" fill="#07215B"/>
<path d="M31.532 7.90791C22.3308 14.3986 14.3139 22.4577 7.85714 31.7072C3.37406 21.9664 0.620301 11.2714 0 0C11.203 0.623563 21.8515 3.3918 31.532 7.90791Z" fill="#07215B"/>
<path d="M81.8045 0C81.1842 11.2714 78.4305 21.9664 73.938 31.7072C67.4906 22.4577 59.4643 14.3986 50.2726 7.90791C59.953 3.3918 70.6015 0.623563 81.8045 0Z" fill="#FF7A00"/>
<path d="M103.938 81.4695C102.923 81.4695 102.124 81.1671 101.513 80.553C100.912 79.9389 100.602 79.1358 100.602 78.1154V5.63099C100.602 4.62006 100.902 3.80754 101.513 3.19342C102.124 2.58876 102.923 2.27698 103.938 2.27698H106.513C107.519 2.27698 108.327 2.57931 108.938 3.19342C109.54 3.79809 109.85 4.62006 109.85 5.63099V12.7925C112.575 9.24009 115.884 6.34903 119.774 4.10987C123.665 1.88016 128.835 0.755859 135.301 0.755859C142.171 0.755859 147.895 2.25808 152.491 5.25307C157.087 8.24806 160.517 12.3107 162.791 17.4314C165.066 22.5617 166.203 28.3721 166.203 34.8723V78.1249C166.203 79.1358 165.902 79.9483 165.291 80.5625C164.69 81.1671 163.872 81.4789 162.867 81.4789H160.291C159.276 81.4789 158.478 81.1766 157.867 80.5625C157.265 79.9483 156.955 79.1453 156.955 78.1249V35.6376C156.955 27.5124 154.981 21.1445 151.043 16.5244C147.105 11.9044 141.344 9.59911 133.769 9.59911C126.598 9.59911 120.818 11.9139 116.429 16.5244C112.04 21.1445 109.84 27.5124 109.84 35.6376V78.1249C109.84 79.1358 109.54 79.9483 108.929 80.5625C108.318 81.1671 107.509 81.4789 106.504 81.4789H103.929L103.938 81.4695Z" fill="#07215B"/>
<path d="M213.618 82.9999C206.748 82.9999 201.072 81.4977 196.579 78.5121C192.087 75.5171 188.75 71.4262 186.579 66.2487C184.408 61.0713 183.318 55.2797 183.318 48.8929V5.63087C183.318 4.61994 183.619 3.80742 184.229 3.1933C184.84 2.57919 185.639 2.27686 186.654 2.27686H189.229C190.235 2.27686 191.043 2.57919 191.654 3.1933C192.256 3.79797 192.566 4.61994 192.566 5.63087V48.1182C192.566 65.474 200.085 74.1566 215.141 74.1566C222.312 74.1566 228.064 71.8514 232.415 67.2313C236.758 62.6113 238.929 56.2434 238.929 48.1182V5.63087C238.929 4.61994 239.229 3.80742 239.84 3.1933C240.451 2.57919 241.25 2.27686 242.265 2.27686H244.84C245.846 2.27686 246.654 2.57919 247.265 3.1933C247.876 3.80742 248.177 4.61994 248.177 5.63087V78.1153C248.177 79.1263 247.876 79.9388 247.265 80.5529C246.664 81.1576 245.846 81.4693 244.84 81.4693H242.265C241.25 81.4693 240.451 81.167 239.84 80.5529C239.239 79.9388 238.929 79.1357 238.929 78.1153V70.9538C236.203 74.5062 232.942 77.4067 229.154 79.6364C225.367 81.8662 220.188 82.9905 213.628 82.9905L213.618 82.9999Z" fill="#07215B"/>
<path d="M268.816 81.4695C267.801 81.4695 267.002 81.1671 266.391 80.553C265.79 79.9389 265.479 79.1358 265.479 78.1154V5.63099C265.479 4.62006 265.78 3.80754 266.391 3.19342C267.002 2.58876 267.801 2.27698 268.816 2.27698H271.391C272.397 2.27698 273.205 2.57931 273.816 3.19342C274.417 3.79809 274.727 4.62006 274.727 5.63099V10.9596C277.246 7.70953 280.254 5.19638 283.741 3.42017C287.227 1.64396 291.438 0.755859 296.391 0.755859C307.697 0.755859 315.78 5.52706 320.63 15.0695C322.951 10.7045 326.363 7.22769 330.855 4.63896C335.348 2.05022 340.526 0.755859 346.382 0.755859C351.729 0.755859 356.551 2.00299 360.846 4.48779C365.141 6.97259 368.515 10.6573 370.996 15.5324C373.468 20.4075 374.709 26.5014 374.709 33.8047V78.1249C374.709 79.1358 374.408 79.9483 373.797 80.5625C373.196 81.1671 372.378 81.4789 371.372 81.4789H368.797C367.782 81.4789 366.983 81.1766 366.372 80.5625C365.771 79.9483 365.461 79.1453 365.461 78.1249V35.3353C365.461 28.6367 364.502 23.4309 362.585 19.7273C360.667 16.0237 358.139 13.4066 355.009 11.8855C351.88 10.3644 348.496 9.59911 344.859 9.59911C341.833 9.59911 338.75 10.3644 335.62 11.8855C332.491 13.4066 329.887 16.0237 327.82 19.7273C325.752 23.4309 324.718 28.6367 324.718 35.3353V78.1249C324.718 79.1358 324.417 79.9483 323.806 80.5625C323.205 81.1671 322.387 81.4789 321.382 81.4789H318.806C317.791 81.4789 316.993 81.1766 316.382 80.5625C315.771 79.9483 315.47 79.1453 315.47 78.1249V35.3353C315.47 28.6367 314.455 23.4309 312.444 19.7273C310.423 16.0237 307.848 13.4066 304.718 11.8855C301.588 10.3644 298.308 9.59911 294.868 9.59911C291.842 9.59911 288.759 10.3644 285.63 11.8855C282.5 13.4066 279.897 16.0237 277.829 19.7273C275.761 23.4309 274.727 28.5894 274.727 35.1841V78.1343C274.727 79.1453 274.427 79.9578 273.816 80.5719C273.205 81.1766 272.397 81.4884 271.391 81.4884H268.816V81.4695Z" fill="#07215B"/>
<path d="M420.169 82.9999C410.376 82.9999 402.594 79.7781 396.842 73.3346C391.09 66.8912 387.801 58.4353 386.993 47.9764C386.889 46.4553 386.842 44.424 386.842 41.8825C386.842 39.341 386.889 37.3097 386.993 35.7886C387.5 28.8822 389.117 22.7977 391.842 17.5163C394.568 12.2349 398.327 8.12507 403.13 5.17732C407.923 2.22956 413.609 0.765137 420.169 0.765137C427.237 0.765137 433.243 2.34294 438.196 5.4891C443.139 8.63526 446.955 13.1514 449.634 19.0469C452.312 24.9329 453.647 31.9433 453.647 40.059V42.3454C453.647 43.3658 453.318 44.1689 452.66 44.783C452.002 45.3877 451.165 45.6995 450.16 45.6995H396.231V47.2206C396.429 51.7934 397.491 56.13 399.408 60.2398C401.325 64.3497 404.051 67.7037 407.585 70.2924C411.118 72.8811 415.31 74.1755 420.16 74.1755C424.502 74.1755 428.111 73.5141 430.987 72.1914C433.863 70.8782 436.165 69.4232 437.876 67.8548C439.596 66.2865 440.705 65.0866 441.212 64.2741C442.124 62.9608 442.829 62.1672 443.337 61.9121C443.844 61.657 444.643 61.5342 445.761 61.5342H448.186C449.098 61.5342 449.878 61.8176 450.536 62.375C451.194 62.9325 451.466 63.6694 451.372 64.5859C451.269 66.0125 450.489 67.7604 449.023 69.8389C447.556 71.9174 445.489 73.9771 442.81 76.0084C440.132 78.0397 436.88 79.712 433.036 81.0347C429.192 82.3479 424.906 83.0093 420.16 83.0093L420.169 82.9999ZM396.231 37.1585H444.408V36.5539C444.408 31.4803 443.449 26.9075 441.532 22.8449C439.615 18.7823 436.833 15.5606 433.196 13.1703C429.558 10.7894 425.216 9.5895 420.169 9.5895C415.122 9.5895 410.799 10.7799 407.218 13.1703C403.628 15.5606 400.902 18.7823 399.041 22.8449C397.171 26.9075 396.241 31.4709 396.241 36.5539V37.1585H396.231Z" fill="#07215B"/>
<path d="M469.107 81.4695C468.092 81.4695 467.293 81.1671 466.682 80.553C466.081 79.9389 465.771 79.1358 465.771 78.1154V5.63099C465.771 4.62006 466.072 3.80754 466.682 3.19342C467.293 2.58876 468.092 2.27698 469.107 2.27698H471.682C472.688 2.27698 473.496 2.57931 474.107 3.19342C474.709 3.79809 475.019 4.62006 475.019 5.63099V10.9596C477.538 7.70953 480.545 5.19638 484.032 3.42017C487.519 1.64396 491.729 0.755859 496.682 0.755859C507.989 0.755859 516.072 5.52706 520.921 15.0695C523.243 10.7045 526.654 7.22769 531.147 4.63896C535.639 2.05022 540.818 0.755859 546.673 0.755859C552.021 0.755859 556.852 2.00299 561.137 4.48779C565.432 6.97259 568.816 10.6573 571.288 15.5324C573.759 20.4075 575 26.5014 575 33.8047V78.1249C575 79.1358 574.699 79.9483 574.088 80.5625C573.478 81.1671 572.669 81.4789 571.664 81.4789H569.088C568.073 81.4789 567.275 81.1766 566.664 80.5625C566.062 79.9483 565.752 79.1453 565.752 78.1249V35.3353C565.752 28.6367 564.793 23.4309 562.876 19.7273C560.959 16.0237 558.431 13.4066 555.301 11.8855C552.171 10.3644 548.788 9.59911 545.15 9.59911C542.124 9.59911 539.041 10.3644 535.912 11.8855C532.782 13.4066 530.179 16.0237 528.111 19.7273C526.043 23.4309 525.009 28.6367 525.009 35.3353V78.1249C525.009 79.1358 524.709 79.9483 524.098 80.5625C523.487 81.1671 522.679 81.4789 521.673 81.4789H519.098C518.083 81.4789 517.284 81.1766 516.673 80.5625C516.072 79.9483 515.761 79.1453 515.761 78.1249V35.3353C515.761 28.6367 514.756 23.4309 512.735 19.7273C510.714 16.0237 508.139 13.4066 505.01 11.8855C501.88 10.3644 498.6 9.59911 495.16 9.59911C492.134 9.59911 489.051 10.3644 485.921 11.8855C482.791 13.4066 480.188 16.0237 478.12 19.7273C476.053 23.4309 475.019 28.5894 475.019 35.1841V78.1343C475.019 79.1453 474.718 79.9578 474.107 80.5719C473.496 81.1766 472.688 81.4884 471.682 81.4884H469.107V81.4695Z" fill="#07215B"/>
</g>
<defs>
<clipPath id="clip0_140_408">
<rect width="575" height="83" fill="white"/>
</clipPath>
</defs>
</svg>
