<svg width="68" height="68" viewBox="0 0 68 68" fill="none" xmlns="http://www.w3.org/2000/svg">
<path fill-rule="evenodd" clip-rule="evenodd" d="M34 0C52.7784 0 68 15.2216 68 34C68 52.7784 52.7784 68 34 68C15.2216 68 0 52.7784 0 34C0 15.2216 15.2216 0 34 0Z" fill="#4A3AFF"/>
<path d="M15.5975 25.0205V38.4983C15.6108 41.5464 18.0997 43.9981 21.1344 43.9861H40.7814C41.3405 43.9861 41.7894 43.5372 41.7894 42.9914V29.5122C41.7775 26.4655 39.2886 24.0125 36.2525 24.0244H16.6055C16.0477 24.0244 15.5975 24.4733 15.5975 25.0205ZM43.0405 30.2772L51.1514 24.3525C51.8553 23.7694 52.4025 23.9155 52.4025 24.9714V43.0392C52.4025 44.2411 51.7344 44.0964 51.1514 43.6594L43.0405 37.7453V30.2772Z" fill="white"/>
</svg>
