<?xml version="1.0" encoding="UTF-8" standalone="no"?>
<!-- Created with Inkscape (http://www.inkscape.org/) -->

<svg
   width="100mm"
   height="40mm"
   viewBox="0 0 100 40"
   version="1.1"
   id="svg2553"
   sodipodi:docname="logotipo-laranja-azul.svg"
   inkscape:version="1.1.2 (0a00cf5339, 2022-02-04)"
   xmlns:inkscape="http://www.inkscape.org/namespaces/inkscape"
   xmlns:sodipodi="http://sodipodi.sourceforge.net/DTD/sodipodi-0.dtd"
   xmlns="http://www.w3.org/2000/svg"
   xmlns:svg="http://www.w3.org/2000/svg">
  <sodipodi:namedview
     id="namedview24"
     pagecolor="#ffffff"
     bordercolor="#666666"
     borderopacity="1.0"
     inkscape:pageshadow="2"
     inkscape:pageopacity="0.0"
     inkscape:pagecheckerboard="0"
     inkscape:document-units="mm"
     showgrid="false"
     inkscape:zoom="3.1300208"
     inkscape:cx="172.52282"
     inkscape:cy="102.71497"
     inkscape:window-width="2560"
     inkscape:window-height="1019"
     inkscape:window-x="0"
     inkscape:window-y="32"
     inkscape:window-maximized="1"
     inkscape:current-layer="layer1" />
  <defs
     id="defs2550" />
  <g
     id="layer1">
    <rect
       x="1.0498047e-07"
       y="0"
       class="st3"
       width="100"
       height="40"
       id="rect10"
       style="clip-rule:evenodd;fill:none;fill-rule:evenodd;stroke-width:0.213618" />
    <path
       class="st7"
       d="m 28.351028,30.169795 c -2.784383,-0.15288 -5.432165,-0.839213 -7.839226,-1.951679 2.283465,-1.603616 4.28067,-3.597586 5.884298,-5.884298 1.118963,2.407073 1.802047,5.051594 1.954928,7.835977 z"
       id="path136"
       style="fill:#04098b;fill-opacity:1;stroke-width:0.325278" />
    <path
       class="st7"
       d="m 15.853797,28.214868 c -2.40706,1.115714 -5.054842,1.802047 -7.839225,1.951679 0.1528818,-2.784396 0.8392204,-5.428917 1.9516753,-7.839226 1.6101287,2.289961 3.6008377,4.283918 5.8875497,5.887547 z"
       id="path140"
       style="fill:#04098b;fill-opacity:1;stroke-width:0.325278" />
    <path
       class="st7"
       d="m 25.137275,20.001567 c -1.753261,2.816916 -4.137559,5.201227 -6.954475,6.954475 -2.816916,-1.753248 -5.201214,-4.137559 -6.954475,-6.954475 1.753261,-2.816916 4.137559,-5.197953 6.954475,-6.954462 2.816916,1.756509 5.201214,4.137546 6.954475,6.954462 z"
       id="path144"
       style="fill:#04098b;fill-opacity:1;stroke-width:0.325278" />
    <path
       class="st7"
       d="M 15.853797,11.788267 C 13.567085,13.391895 11.573128,15.385852 9.9695063,17.672565 8.8537924,15.262256 8.1707058,12.617735 8.0178252,9.833339 10.802216,9.98622 13.449985,10.672564 15.853797,11.788267 Z"
       id="path148"
       style="fill:#04098b;fill-opacity:1;stroke-width:0.325278" />
    <path
       class="st5"
       d="m 28.351028,9.833339 c -0.152881,2.787644 -0.839225,5.432153 -1.954928,7.839226 -1.603628,-2.286713 -3.597585,-4.28067 -5.884298,-5.884298 2.410309,-1.115703 5.054843,-1.802047 7.839226,-1.954928 z"
       id="path152"
       style="fill:#f26524;fill-opacity:1;stroke-width:0.325278" />
    <path
       class="st7"
       d="m 33.43839,29.981134 c -0.126844,0 -0.224442,-0.03895 -0.3025,-0.113876 -0.07492,-0.0748 -0.113876,-0.175644 -0.113876,-0.302501 V 20.60332 c 0,-0.12687 0.03895,-0.224455 0.113876,-0.302525 0.0748,-0.07492 0.175656,-0.113877 0.3025,-0.113877 h 0.318767 c 0.12687,0 0.224455,0.03895 0.302526,0.113877 0.0748,0.07492 0.113876,0.175655 0.113876,0.302525 v 0.884751 c 0.338294,-0.439127 0.751397,-0.796936 1.232815,-1.073425 0.481417,-0.276489 1.125459,-0.413104 1.928904,-0.413104 0.852231,0 1.564599,0.185414 2.13708,0.55624 0.572493,0.370801 0.998603,0.871745 1.281601,1.506031 0.282998,0.634285 0.422861,1.353162 0.422861,2.156594 v 5.347598 c 0,0.126857 -0.03908,0.224443 -0.113876,0.302513 -0.07492,0.0748 -0.175656,0.113877 -0.302513,0.113877 h -0.31878 c -0.126857,0 -0.224442,-0.03908 -0.3025,-0.113877 -0.07492,-0.07492 -0.113876,-0.175656 -0.113876,-0.302513 v -5.253261 c 0,-1.005111 -0.243957,-1.79229 -0.735132,-2.361522 -0.487926,-0.572493 -1.20353,-0.855492 -2.146837,-0.855492 -0.891273,0 -1.610138,0.286259 -2.156607,0.855492 -0.54647,0.572481 -0.819699,1.359672 -0.819699,2.361522 v 5.253261 c 0,0.126857 -0.03895,0.224443 -0.113876,0.302513 -0.07492,0.0748 -0.175656,0.113877 -0.302513,0.113877 h -0.31227 z"
       id="path160"
       style="fill:#454545;fill-opacity:1;stroke-width:0.325278" />
    <path
       class="st7"
       d="m 47.07085,30.169795 c -0.852243,0 -1.55809,-0.185413 -2.117578,-0.556214 C 44.393797,29.242754 43.980693,28.738575 43.7107,28.097768 43.440732,27.456974 43.307366,26.741344 43.307366,25.95093 v -5.347585 c 0,-0.12687 0.03908,-0.224455 0.113877,-0.302526 0.07492,-0.07492 0.175643,-0.113876 0.302513,-0.113876 h 0.318766 c 0.126858,0 0.224443,0.03896 0.302501,0.113876 0.07803,0.07492 0.113876,0.175656 0.113876,0.302526 v 5.253248 c 0,2.14685 0.933538,3.220263 2.803898,3.220263 0.891261,0 1.60689,-0.286247 2.146838,-0.855479 0.539961,-0.572494 0.809954,-1.359672 0.809954,-2.361535 v -5.253261 c 0,-0.126845 0.03895,-0.22443 0.113876,-0.302501 0.07492,-0.07803 0.175656,-0.113876 0.302513,-0.113876 h 0.318779 c 0.126857,0 0.224442,0.03908 0.302513,0.113876 0.07803,0.07492 0.113876,0.175656 0.113876,0.302501 v 8.961449 c 0,0.126857 -0.03908,0.224443 -0.113876,0.302513 -0.07492,0.0748 -0.175656,0.113877 -0.302513,0.113877 h -0.318779 c -0.126857,0 -0.224442,-0.03908 -0.302513,-0.113877 -0.0748,-0.07492 -0.113876,-0.175656 -0.113876,-0.302513 v -0.884751 c -0.338294,0.439115 -0.744889,0.796936 -1.213301,1.073413 -0.474895,0.273228 -1.118963,0.413103 -1.9354,0.413103 z"
       id="path162"
       style="fill:#454545;fill-opacity:1;stroke-width:0.325278" />
    <path
       class="st7"
       d="m 53.930976,29.981134 c -0.126845,0 -0.22443,-0.03895 -0.302501,-0.113876 -0.0748,-0.0748 -0.113876,-0.175644 -0.113876,-0.302501 V 20.60332 c 0,-0.12687 0.03908,-0.224455 0.113876,-0.302525 0.0748,-0.07492 0.175656,-0.113877 0.302501,-0.113877 h 0.318779 c 0.126857,0 0.224455,0.03895 0.302513,0.113877 0.07492,0.07492 0.113876,0.175655 0.113876,0.302525 v 0.660309 c 0.312258,-0.400098 0.686333,-0.712369 1.118963,-0.93355 0.432606,-0.217933 0.956313,-0.328537 1.571096,-0.328537 1.40521,0 2.410322,0.588748 3.012087,1.769515 0.289495,-0.539961 0.712356,-0.969331 1.271843,-1.288098 0.559476,-0.318779 1.20027,-0.481417 1.928905,-0.481417 0.663569,0 1.265334,0.152881 1.798786,0.461903 0.533464,0.309009 0.953065,0.761142 1.262087,1.366168 0.309009,0.601778 0.46189,1.356411 0.46189,2.260689 v 5.477703 c 0,0.126857 -0.03896,0.224443 -0.113877,0.302513 -0.0748,0.0748 -0.175643,0.113877 -0.302513,0.113877 h -0.318766 c -0.12687,0 -0.224455,-0.03908 -0.302526,-0.113877 -0.0748,-0.07492 -0.113876,-0.175656 -0.113876,-0.302513 v -5.289041 c 0,-0.829456 -0.120348,-1.470263 -0.357809,-1.928905 -0.23746,-0.458642 -0.552966,-0.780669 -0.940058,-0.96933 -0.390329,-0.188662 -0.809942,-0.282999 -1.262074,-0.282999 -0.377336,0 -0.757907,0.09434 -1.148235,0.282999 -0.390341,0.188661 -0.712369,0.510688 -0.969344,0.96933 -0.256962,0.458642 -0.38708,1.102697 -0.38708,1.928905 v 5.289041 c 0,0.126857 -0.03908,0.224443 -0.113876,0.302513 -0.07492,0.0748 -0.175644,0.113877 -0.302501,0.113877 h -0.318779 c -0.126857,0 -0.22443,-0.03908 -0.3025,-0.113877 -0.07492,-0.07492 -0.113877,-0.175656 -0.113877,-0.302513 v -5.289041 c 0,-0.829456 -0.126869,-1.470263 -0.377323,-1.928905 -0.250465,-0.458642 -0.572493,-0.780669 -0.959586,-0.96933 -0.390328,-0.188662 -0.796923,-0.282999 -1.223044,-0.282999 -0.377323,0 -0.761143,0.09434 -1.148235,0.282999 -0.390341,0.188661 -0.712369,0.510688 -0.969331,0.96933 -0.256975,0.458642 -0.38708,1.096201 -0.38708,1.90939 v 5.308556 c 0,0.126857 -0.03896,0.224443 -0.113877,0.302513 -0.07492,0.0748 -0.175656,0.113877 -0.302525,0.113877 h -0.31227 z"
       id="path164"
       style="fill:#454545;fill-opacity:1;stroke-width:0.325278" />
    <path
       class="st7"
       d="m 72.741887,30.169795 c -1.216549,0 -2.182631,-0.396837 -2.898248,-1.197021 -0.715604,-0.796936 -1.122211,-1.841089 -1.223045,-3.135695 -0.01307,-0.188674 -0.01954,-0.439127 -0.01954,-0.754646 0,-0.31227 0.0062,-0.565997 0.01954,-0.754646 0.06185,-0.852231 0.263472,-1.606889 0.601765,-2.260701 0.338294,-0.6538 0.806693,-1.161241 1.401949,-1.525546 0.595269,-0.364329 1.301116,-0.546469 2.117579,-0.546469 0.878242,0 1.626391,0.19517 2.241174,0.582238 0.614771,0.390341 1.089679,0.946568 1.421451,1.67519 0.331797,0.728622 0.497696,1.593871 0.497696,2.598983 v 0.282986 c 0,0.126869 -0.04232,0.224454 -0.123584,0.302525 -0.08127,0.0748 -0.185413,0.113876 -0.309022,0.113876 h -6.703996 c 0,0.100809 0,0.162638 0,0.188662 0.02601,0.565984 0.156129,1.102697 0.396837,1.610137 0.237461,0.507441 0.575742,0.923781 1.01813,1.24256 0.439115,0.318779 0.959573,0.481417 1.561339,0.481417 0.53996,0 0.988845,-0.08127 1.346653,-0.243957 0.357796,-0.162638 0.644055,-0.341542 0.855479,-0.536712 0.214685,-0.195171 0.351312,-0.341555 0.413104,-0.442388 0.113877,-0.162638 0.20168,-0.260211 0.263484,-0.292744 0.06185,-0.03261 0.162638,-0.04555 0.3025,-0.04555 h 0.302513 c 0.113877,0 0.211425,0.03584 0.292756,0.104169 0.08127,0.06833 0.116988,0.159389 0.104169,0.273228 -0.01307,0.175656 -0.110641,0.393602 -0.292756,0.650564 -0.182165,0.256975 -0.439139,0.510702 -0.770912,0.761168 -0.331797,0.250453 -0.738392,0.458641 -1.2133,0.621267 -0.481404,0.165898 -1.014869,0.247217 -1.603616,0.247217 z m -2.976306,-5.666364 h 5.988392 v -0.0748 c 0,-0.627788 -0.120348,-1.193773 -0.357808,-1.694704 -0.23746,-0.500932 -0.582263,-0.90103 -1.034396,-1.197034 -0.452133,-0.296004 -0.992106,-0.442376 -1.619882,-0.442376 -0.627802,0 -1.164502,0.146372 -1.610138,0.442376 -0.445636,0.296004 -0.78393,0.692841 -1.018129,1.197034 -0.230939,0.500931 -0.348039,1.066916 -0.348039,1.694704 z"
       id="path166"
       style="fill:#454545;fill-opacity:1;stroke-width:0.325278" />
    <path
       class="st7"
       d="m 78.824591,29.981134 c -0.126845,0 -0.22443,-0.03895 -0.302501,-0.113876 -0.0748,-0.0748 -0.113876,-0.175644 -0.113876,-0.302501 V 20.60332 c 0,-0.12687 0.03908,-0.224455 0.113876,-0.302525 0.07492,-0.07492 0.175656,-0.113877 0.302501,-0.113877 h 0.318792 c 0.126844,0 0.224442,0.03895 0.3025,0.113877 0.07492,0.07492 0.113876,0.175655 0.113876,0.302525 v 0.660309 c 0.312258,-0.400098 0.686333,-0.712369 1.118963,-0.93355 0.432619,-0.217933 0.956313,-0.328537 1.571096,-0.328537 1.40521,0 2.410322,0.588748 3.012087,1.769515 0.289495,-0.539961 0.712368,-0.969331 1.271844,-1.288098 0.559475,-0.318779 1.200269,-0.481417 1.928904,-0.481417 0.666818,0 1.265335,0.152881 1.798786,0.461903 0.533465,0.309009 0.953065,0.761142 1.262087,1.366168 0.305773,0.601778 0.461902,1.356411 0.461902,2.260689 v 5.477703 c 0,0.126857 -0.03895,0.224443 -0.113876,0.302513 -0.0748,0.0748 -0.175644,0.113877 -0.302513,0.113877 h -0.318767 c -0.126869,0 -0.224442,-0.03908 -0.302513,-0.113877 -0.07492,-0.07492 -0.113876,-0.175656 -0.113876,-0.302513 v -5.289041 c 0,-0.829456 -0.120348,-1.470263 -0.357808,-1.928905 -0.237461,-0.458642 -0.552967,-0.780669 -0.940059,-0.96933 -0.390341,-0.188662 -0.809942,-0.282999 -1.262074,-0.282999 -0.377336,0 -0.761155,0.09434 -1.148248,0.282999 -0.390328,0.188661 -0.712356,0.510688 -0.96933,0.96933 -0.256963,0.458642 -0.387081,1.102697 -0.387081,1.928905 v 5.289041 c 0,0.126857 -0.03908,0.224443 -0.113876,0.302513 -0.07492,0.0748 -0.175643,0.113877 -0.302501,0.113877 h -0.318779 c -0.126857,0 -0.224442,-0.03908 -0.3025,-0.113877 -0.07492,-0.07492 -0.113877,-0.175656 -0.113877,-0.302513 v -5.289041 c 0,-0.829456 -0.126844,-1.470263 -0.37731,-1.928905 -0.250466,-0.458642 -0.572493,-0.780669 -0.959574,-0.96933 -0.390328,-0.188662 -0.796935,-0.282999 -1.223057,-0.282999 -0.37731,0 -0.761142,0.09434 -1.148235,0.282999 -0.390341,0.188661 -0.712356,0.510688 -0.969318,0.96933 -0.256987,0.458642 -0.387093,1.096201 -0.387093,1.90939 v 5.308556 c 0,0.126857 -0.03895,0.224443 -0.113876,0.302513 -0.07492,0.0748 -0.175656,0.113877 -0.302525,0.113877 h -0.312271 z"
       id="path168"
       style="fill:#454545;fill-opacity:1;stroke-width:0.325278" />
    <g
       id="g184"
       transform="matrix(0.32527921,0,0,0.32527921,-39.814483,-127.84433)"
       style="fill:#f26524;fill-opacity:1">
      <path
         class="st5"
         d="m 232.5,450.5 c -2.45,0 -4.39,-0.8 -5.83,-2.4 -1.44,-1.6 -2.26,-3.7 -2.46,-6.3 -0.03,-0.38 -0.04,-0.88 -0.04,-1.51 0,-0.63 0.01,-1.13 0.04,-1.51 0.13,-1.71 0.53,-3.23 1.21,-4.54 0.68,-1.31 1.62,-2.33 2.82,-3.06 1.2,-0.73 2.62,-1.1 4.26,-1.1 1.76,0 3.27,0.39 4.5,1.17 1.24,0.78 2.19,1.9 2.86,3.37 0.67,1.46 1,3.2 1,5.22 v 0.57 c 0,0.25 -0.08,0.45 -0.25,0.61 -0.16,0.15 -0.37,0.23 -0.62,0.23 h -13.47 c 0,0.2 0,0.33 0,0.38 0.05,1.13 0.31,2.21 0.79,3.23 0.48,1.02 1.16,1.85 2.04,2.5 0.88,0.64 1.93,0.96 3.14,0.96 1.08,0 1.99,-0.16 2.7,-0.49 0.72,-0.33 1.29,-0.69 1.72,-1.08 0.43,-0.39 0.71,-0.69 0.83,-0.89 0.23,-0.33 0.4,-0.52 0.53,-0.59 0.13,-0.06 0.33,-0.09 0.61,-0.09 h 0.6 c 0.23,0 0.42,0.07 0.59,0.21 0.16,0.14 0.23,0.32 0.21,0.55 -0.03,0.35 -0.22,0.79 -0.59,1.31 -0.37,0.52 -0.88,1.03 -1.55,1.53 -0.67,0.5 -1.48,0.92 -2.44,1.25 -0.94,0.3 -2.01,0.47 -3.2,0.47 z m -5.97,-11.39 h 12.03 v -0.15 c 0,-1.26 -0.24,-2.4 -0.72,-3.4 -0.48,-1.01 -1.17,-1.81 -2.08,-2.4 -0.91,-0.59 -1.99,-0.89 -3.25,-0.89 -1.26,0 -2.34,0.3 -3.23,0.89 -0.9,0.59 -1.58,1.39 -2.04,2.4 -0.47,1.01 -0.7,2.14 -0.7,3.4 v 0.15 z"
         id="path172"
         style="fill:#f26524;fill-opacity:1" />
      <path
         class="st5"
         d="m 252.1,450.5 c -1.31,0 -2.44,-0.18 -3.39,-0.53 -0.95,-0.35 -1.72,-0.78 -2.33,-1.27 -0.6,-0.49 -1.05,-0.98 -1.34,-1.46 -0.29,-0.48 -0.45,-0.84 -0.47,-1.1 -0.03,-0.28 0.06,-0.49 0.26,-0.62 0.2,-0.14 0.39,-0.21 0.57,-0.21 h 0.57 c 0.15,0 0.28,0.03 0.4,0.08 0.11,0.05 0.26,0.19 0.44,0.42 0.33,0.43 0.71,0.84 1.13,1.23 0.43,0.39 0.98,0.7 1.65,0.93 0.67,0.23 1.51,0.34 2.52,0.34 1.51,0 2.76,-0.29 3.75,-0.87 0.98,-0.58 1.48,-1.44 1.48,-2.57 0,-0.71 -0.2,-1.27 -0.59,-1.7 -0.39,-0.43 -1.05,-0.81 -1.99,-1.13 -0.93,-0.33 -2.19,-0.67 -3.78,-1.02 -1.59,-0.38 -2.81,-0.83 -3.65,-1.36 -0.85,-0.53 -1.42,-1.14 -1.72,-1.83 -0.3,-0.69 -0.45,-1.44 -0.45,-2.25 0,-0.88 0.25,-1.75 0.76,-2.59 0.5,-0.84 1.25,-1.54 2.25,-2.08 1,-0.54 2.25,-0.81 3.76,-0.81 1.24,0 2.29,0.16 3.16,0.49 0.87,0.33 1.58,0.73 2.14,1.19 0.55,0.47 0.96,0.93 1.23,1.38 0.27,0.45 0.41,0.82 0.44,1.1 0.02,0.25 -0.05,0.45 -0.23,0.61 -0.18,0.15 -0.38,0.23 -0.6,0.23 h -0.57 c -0.2,0 -0.37,-0.04 -0.49,-0.13 -0.13,-0.09 -0.24,-0.21 -0.34,-0.36 -0.25,-0.4 -0.55,-0.78 -0.91,-1.13 -0.35,-0.35 -0.83,-0.64 -1.42,-0.85 -0.59,-0.21 -1.39,-0.32 -2.4,-0.32 -1.51,0 -2.64,0.31 -3.37,0.93 -0.73,0.62 -1.1,1.41 -1.1,2.36 0,0.55 0.15,1.04 0.45,1.46 0.3,0.42 0.87,0.79 1.7,1.13 0.83,0.34 2.04,0.7 3.63,1.08 1.61,0.35 2.89,0.79 3.82,1.31 0.93,0.52 1.59,1.13 1.99,1.83 0.39,0.71 0.59,1.54 0.59,2.5 0,1.01 -0.28,1.94 -0.85,2.8 -0.57,0.86 -1.41,1.54 -2.53,2.06 -1.15,0.47 -2.53,0.73 -4.17,0.73 z"
         id="path174"
         style="fill:#f26524;fill-opacity:1" />
      <path
         class="st5"
         d="m 271.92,450.5 c -1.77,0 -3.27,-0.35 -4.5,-1.04 -1.24,-0.69 -2.18,-1.7 -2.82,-3.01 -0.64,-1.31 -0.99,-2.86 -1.04,-4.65 -0.03,-0.38 -0.04,-0.88 -0.04,-1.51 0,-0.63 0.01,-1.13 0.04,-1.51 0.05,-1.82 0.4,-3.37 1.04,-4.67 0.64,-1.3 1.58,-2.29 2.82,-2.99 1.23,-0.69 2.74,-1.04 4.5,-1.04 1.34,0 2.49,0.18 3.46,0.55 0.97,0.37 1.77,0.85 2.4,1.44 0.63,0.59 1.11,1.24 1.44,1.95 0.33,0.71 0.5,1.4 0.53,2.08 0.02,0.25 -0.05,0.45 -0.23,0.61 -0.18,0.15 -0.38,0.23 -0.6,0.23 h -0.53 c -0.25,0 -0.43,-0.06 -0.55,-0.17 -0.11,-0.11 -0.23,-0.32 -0.36,-0.62 -0.53,-1.44 -1.25,-2.44 -2.18,-3.01 -0.92,-0.57 -2.05,-0.85 -3.39,-0.85 -1.72,0 -3.13,0.52 -4.26,1.57 -1.12,1.05 -1.72,2.76 -1.8,5.13 -0.05,0.88 -0.05,1.77 0,2.65 0.08,2.37 0.67,4.08 1.8,5.13 1.12,1.05 2.54,1.57 4.26,1.57 1.34,0 2.46,-0.28 3.39,-0.85 0.92,-0.57 1.65,-1.57 2.18,-3.01 0.13,-0.3 0.25,-0.51 0.36,-0.62 0.11,-0.11 0.3,-0.17 0.55,-0.17 h 0.53 c 0.23,0 0.43,0.08 0.6,0.23 0.18,0.15 0.25,0.35 0.23,0.61 -0.03,0.55 -0.14,1.11 -0.34,1.66 -0.2,0.55 -0.51,1.1 -0.93,1.63 -0.42,0.53 -0.93,1 -1.53,1.4 -0.6,0.4 -1.33,0.73 -2.17,0.96 -0.85,0.2 -1.8,0.32 -2.86,0.32 z"
         id="path176"
         style="fill:#f26524;fill-opacity:1" />
      <path
         class="st5"
         d="m 292.23,450.5 c -1.82,0 -3.34,-0.38 -4.56,-1.13 -1.22,-0.76 -2.16,-1.79 -2.8,-3.1 -0.64,-1.31 -0.99,-2.77 -1.04,-4.39 -0.03,-0.38 -0.04,-0.91 -0.04,-1.59 0,-0.68 0.01,-1.21 0.04,-1.59 0.05,-1.64 0.4,-3.11 1.04,-4.41 0.64,-1.3 1.58,-2.33 2.8,-3.08 1.22,-0.76 2.74,-1.13 4.56,-1.13 1.82,0 3.33,0.38 4.56,1.13 1.22,0.76 2.16,1.78 2.8,3.08 0.64,1.3 0.99,2.77 1.04,4.41 0.03,0.38 0.04,0.91 0.04,1.59 0,0.68 -0.01,1.21 -0.04,1.59 -0.05,1.61 -0.4,3.08 -1.04,4.39 -0.64,1.31 -1.58,2.35 -2.8,3.1 -1.22,0.75 -2.74,1.13 -4.56,1.13 z m 0,-2.2 c 1.76,0 3.2,-0.57 4.31,-1.7 1.11,-1.13 1.7,-2.77 1.78,-4.92 0.02,-0.38 0.04,-0.84 0.04,-1.4 0,-0.55 -0.01,-1.02 -0.04,-1.4 -0.08,-2.17 -0.67,-3.81 -1.78,-4.94 -1.11,-1.12 -2.55,-1.68 -4.31,-1.68 -1.77,0 -3.2,0.56 -4.31,1.68 -1.11,1.12 -1.7,2.77 -1.78,4.94 -0.03,0.38 -0.04,0.85 -0.04,1.4 0,0.55 0.01,1.02 0.04,1.4 0.08,2.14 0.67,3.78 1.78,4.92 1.11,1.13 2.55,1.7 4.31,1.7 z"
         id="path178"
         style="fill:#f26524;fill-opacity:1" />
      <path
         class="st5"
         d="m 306.72,450.12 c -0.25,0 -0.45,-0.08 -0.61,-0.23 -0.15,-0.15 -0.23,-0.35 -0.23,-0.61 v -25.19 c 0,-0.25 0.08,-0.45 0.23,-0.61 0.15,-0.15 0.35,-0.23 0.61,-0.23 h 0.64 c 0.25,0 0.45,0.08 0.6,0.23 0.15,0.15 0.23,0.35 0.23,0.61 v 25.19 c 0,0.25 -0.08,0.45 -0.23,0.61 -0.15,0.15 -0.35,0.23 -0.6,0.23 z"
         id="path180"
         style="fill:#f26524;fill-opacity:1" />
      <path
         class="st5"
         d="m 319.66,450.5 c -1.21,0 -2.33,-0.25 -3.35,-0.76 -1.02,-0.5 -1.85,-1.18 -2.48,-2.02 -0.63,-0.84 -0.95,-1.8 -0.95,-2.86 0,-1.71 0.69,-3.09 2.08,-4.12 1.39,-1.03 3.19,-1.7 5.41,-2 l 5.98,-0.83 v -1.32 c 0,-1.34 -0.41,-2.39 -1.23,-3.16 -0.82,-0.77 -2.12,-1.15 -3.91,-1.15 -1.31,0 -2.37,0.26 -3.18,0.78 -0.81,0.52 -1.36,1.19 -1.66,2.02 -0.13,0.38 -0.37,0.57 -0.72,0.57 h -0.6 c -0.3,0 -0.52,-0.08 -0.64,-0.25 -0.13,-0.16 -0.19,-0.36 -0.19,-0.59 0,-0.35 0.13,-0.79 0.4,-1.32 0.26,-0.53 0.67,-1.05 1.23,-1.57 0.55,-0.52 1.27,-0.95 2.16,-1.31 0.88,-0.35 1.95,-0.53 3.22,-0.53 1.49,0 2.72,0.2 3.69,0.61 0.97,0.4 1.73,0.93 2.27,1.57 0.54,0.64 0.93,1.36 1.15,2.14 0.23,0.78 0.34,1.55 0.34,2.31 v 12.6 c 0,0.25 -0.08,0.45 -0.23,0.61 -0.15,0.15 -0.35,0.23 -0.61,0.23 h -0.64 c -0.25,0 -0.45,-0.08 -0.61,-0.23 -0.15,-0.15 -0.23,-0.35 -0.23,-0.61 v -1.78 c -0.3,0.45 -0.73,0.91 -1.29,1.36 -0.55,0.45 -1.27,0.84 -2.14,1.15 -0.87,0.3 -1.96,0.46 -3.27,0.46 z m 0.37,-2.2 c 1.16,0 2.22,-0.25 3.18,-0.76 0.96,-0.5 1.72,-1.28 2.29,-2.33 0.57,-1.05 0.85,-2.36 0.85,-3.95 v -1.29 l -4.88,0.68 c -2.07,0.28 -3.63,0.76 -4.69,1.44 -1.06,0.68 -1.59,1.54 -1.59,2.57 0,0.83 0.24,1.51 0.72,2.04 0.48,0.53 1.09,0.93 1.83,1.19 0.75,0.28 1.51,0.41 2.29,0.41 z"
         id="path182"
         style="fill:#f26524;fill-opacity:1" />
    </g>
  </g>
</svg>
